<svg xmlns="http://www.w3.org/2000/svg" viewBox="0 0 351.59 291.71"><defs><style>.cls-1{isolation:isolate;}.cls-2{fill:#563d2c;}.cls-3{fill:#705543;}.cls-4{fill:#ba9e8c;}.cls-5{fill:#4a3928;}.cls-6{fill:#302315;}.cls-7{fill:#b5c4b3;}.cls-8{fill:#212425;}.cls-9{fill:#eaeae6;}.cls-10{fill:#332925;}.cls-11{fill:#282322;}.cls-12{fill:#d9cbc1;}.cls-12,.cls-14{mix-blend-mode:multiply;}.cls-13{fill:#6d2f0d;}.cls-14{fill:#1d1d1b;opacity:0.2;}.cls-15{fill:#5e2810;}.cls-16{fill:#56240b;}</style></defs><title>bodegrudado</title><g class="cls-1"><g id="Layer_1" data-name="Layer 1"><path class="cls-2" d="M166.93,117.66s-12.11-14.29-23.37-14.29-24.69-.87-26.85,3.9,15.56,34.17,42.87,35.93S166.93,117.66,166.93,117.66Z" transform="translate(-49.2 -34.94)"/><path class="cls-3" d="M159.57,125c1.17-5.77-19.91-13.86-27.27-13.43s1.29,3.45,5.63,6.71.59,7.58,6.57,9.75S158.26,131.53,159.57,125Z" transform="translate(-49.2 -34.94)"/><path class="cls-2" d="M283.07,117.66s12.1-14.29,23.37-14.29,24.69-.87,26.85,3.9-15.57,34.17-42.87,35.93S283.07,117.66,283.07,117.66Z" transform="translate(-49.2 -34.94)"/><path class="cls-3" d="M290.42,125c-1.17-5.77,19.92-13.86,27.28-13.43s-1.3,3.45-5.63,6.71-.59,7.58-6.58,9.75S291.74,131.53,290.42,125Z" transform="translate(-49.2 -34.94)"/><path class="cls-3" d="M288.68,134.23c-4.55-14-3.47-17.43-3.47-17.43S243.51,76.08,225,77.38c-18.52-1.3-60.21,39.42-60.21,39.42s1.08,3.46-3.47,17.43,1,15.27,3.1,20.47.48,17.55.15,23.07,2.24,20,2.24,28.49,6.82,17.54,13.32,23.32S200,247.36,200,247.36l25-3.86,25,3.86s13.35-12,19.85-17.78,13.32-14.87,13.32-23.32,2.56-23,2.24-28.49-2-17.87.14-23.07S293.23,148.2,288.68,134.23Z" transform="translate(-49.2 -34.94)"/><path class="cls-4" d="M247.35,193.69c-6.43-5.85-14.56-28.59-22.35-28.59s-15.92,22.74-22.36,28.59-8.18,16.24-6.56,21.77,0,11,0,14.94,7.39,13.1,7.39,13.1c11.29,10.18,21.53,3.26,21.53,3.26s10.24,6.92,21.53-3.26c0,0,7.38-9.21,7.38-13.1s-1.62-9.42,0-14.94S253.79,199.54,247.35,193.69Z" transform="translate(-49.2 -34.94)"/><path class="cls-4" d="M251.19,236.89c-5.08-4.86-26.19,1-26.19,1s-21.12-5.84-26.19-1,7,20.15,13.13,25.35,9.16,0,13.06,0,6.95,5.2,13.06,0S256.26,241.76,251.19,236.89Z" transform="translate(-49.2 -34.94)"/><path class="cls-5" d="M246.53,243.5c-1.87-.22-9.58,5.53-12.77,4.81-4.17-.95-8.76-1.55-8.76-1.55s-4.6.6-8.76,1.55c-3.19.72-10.9-5-12.77-4.81s5.59,5,8.47,6.5a12.79,12.79,0,0,0,8.46.86,20.18,20.18,0,0,1,9.19,0,12.81,12.81,0,0,0,8.47-.86C240.94,248.48,248.39,243.72,246.53,243.5Z" transform="translate(-49.2 -34.94)"/><path class="cls-5" d="M241.24,205.31c-7.14-3.25-10.39,8.45-16.24,8.45s-9.1-11.7-16.24-8.45-9.1,6.5,0,12.35,10.93,5.2,11.63,11.05,0,8.66,4.61,8.66,3.9-2.82,4.6-8.66,2.54-5.2,11.64-11.05S248.39,208.56,241.24,205.31Z" transform="translate(-49.2 -34.94)"/><path class="cls-6" d="M215,213.76c-5.84-1.52-10.34-5.19-11.56-.65h0a18.5,18.5,0,0,0,5.29,4.55c7.65,4.92,10.16,5.25,11.18,8.72l.45.16S220.88,215.28,215,213.76Z" transform="translate(-49.2 -34.94)"/><path class="cls-6" d="M235,213.76c5.85-1.52,10.35-5.19,11.57-.65h0a18.5,18.5,0,0,1-5.29,4.55c-7.66,4.92-10.16,5.25-11.18,8.72l-.46.16S229.11,215.28,235,213.76Z" transform="translate(-49.2 -34.94)"/><path class="cls-6" d="M170,144.22c4-.94,10,8.75,11.28,13.6s-.24,1.38-1.16,0-1.55-2.31-3-2.19-7.36.72-9.47-2.15C162,145.84,167.71,144.76,170,144.22Z" transform="translate(-49.2 -34.94)"/><path class="cls-7" d="M165.55,147.62c.28,1.68,1.39,7.55,6.85,6.93s3.47-5.24,2.08-6.93-1.78-2.53-3.26-2.93C169.1,144.13,165.33,146.32,165.55,147.62Z" transform="translate(-49.2 -34.94)"/><path class="cls-8" d="M167.56,149c-.76.76.46,1.84,2,1.69s3.85-.45,2.85-1.69A3.2,3.2,0,0,0,167.56,149Z" transform="translate(-49.2 -34.94)"/><path class="cls-9" d="M170,148.29c0,.36-.59.65-1.33.65s-1.33-.29-1.33-.65.59-.66,1.33-.66S170,147.92,170,148.29Z" transform="translate(-49.2 -34.94)"/><path class="cls-9" d="M171.19,150.39a.8.8,0,0,1-.56.94.68.68,0,1,1-.49-1.22A.79.79,0,0,1,171.19,150.39Z" transform="translate(-49.2 -34.94)"/><path class="cls-2" d="M187.74,217.92c-7.84-3.65-11.7-15.24-11.73-24s-10.47-35-10.47-35l-.2.23c.53,6-.52,14.34-.77,18.62-.32,5.52,2.24,20,2.24,28.49s6.82,17.54,13.32,23.32S200,247.36,200,247.36l6.16-1h0C205.8,243.25,195.59,221.57,187.74,217.92Z" transform="translate(-49.2 -34.94)"/><path class="cls-2" d="M257.71,96.87c-.6-2.39-2.43-4.82-4.92-7.17C242.55,82.53,232.08,76.88,225,77.38c-7.08-.5-17.56,5.15-27.79,12.32-2.49,2.35-4.32,4.78-4.92,7.17-2.82,11.27,13.65,21.23,19.65,28.59s4.83,28.59,13.06,29.13c8.23-.54,7.06-21.76,13.06-29.13S260.53,108.14,257.71,96.87Z" transform="translate(-49.2 -34.94)"/><path class="cls-10" d="M169,115.23c4.34,5.06,47.72-17.54,44.91-28.77S163.4,27.51,115,35.94,32.88,109.62,57.44,158s65.84,62.57,74.19,66.67c11.42,5.61,27.56-2.81,10-13.34-15.09-9.05-42.1-38.59-47.71-58.94s-2.81-56.84,21.75-65.27S160.59,105.41,169,115.23Z" transform="translate(-49.2 -34.94)"/><path class="cls-11" d="M119,65c-38,7.27-58.63,56.53-39.29,94.66s49.64,51.55,56.21,54.78a13.65,13.65,0,0,0,10.33.71,26.67,26.67,0,0,0-4.79-3.57c-15.09-9.05-42.11-38.59-47.72-58.94S91,95.75,115.52,87.32s44.9,18.25,53.33,28.08c2.56,3,18.77-3.69,31-12C193.62,92,159.72,57.15,119,65Z" transform="translate(-49.2 -34.94)"/><path class="cls-10" d="M281,115.23c-4.33,5.06-47.71-17.54-44.9-28.77S286.6,27.51,335,35.94s82.12,73.68,57.55,122.1-65.85,62.57-74.19,66.67c-11.42,5.61-27.56-2.81-10-13.34,15.09-9.05,42.11-38.59,47.72-58.94s2.81-56.84-21.75-65.27S289.41,105.41,281,115.23Z" transform="translate(-49.2 -34.94)"/><path class="cls-11" d="M330.64,65c38,7.27,58.64,56.53,39.3,94.66s-49.64,51.55-56.2,54.78a13.68,13.68,0,0,1-10.34.71,26.67,26.67,0,0,1,4.79-3.57c15.09-9.05,42.1-38.59,47.72-58.94s2.8-56.84-21.76-65.27-44.91,18.25-53.33,28.08c-2.56,3-18.77-3.69-31-12C256.05,92,289.94,57.15,330.64,65Z" transform="translate(-49.2 -34.94)"/><path class="cls-6" d="M280,144.22c-4-.94-10,8.75-11.28,13.6s.24,1.38,1.16,0,1.55-2.31,3-2.19,7.36.72,9.47-2.15C288,145.84,282.29,144.76,280,144.22Z" transform="translate(-49.2 -34.94)"/><path class="cls-7" d="M284.45,147.62c-.28,1.68-1.39,7.55-6.85,6.93s-3.47-5.24-2.08-6.93,1.78-2.53,3.26-2.93C280.9,144.13,284.67,146.32,284.45,147.62Z" transform="translate(-49.2 -34.94)"/><path class="cls-8" d="M282.44,149c.77.76-.46,1.84-2,1.69s-3.85-.45-2.84-1.69A3.2,3.2,0,0,1,282.44,149Z" transform="translate(-49.2 -34.94)"/><path class="cls-9" d="M280,148.29c0,.36.59.65,1.32.65s1.34-.29,1.34-.65-.6-.66-1.34-.66S280,147.92,280,148.29Z" transform="translate(-49.2 -34.94)"/><path class="cls-9" d="M278.81,150.39a.8.8,0,0,0,.56.94.68.68,0,1,0,.49-1.22A.79.79,0,0,0,278.81,150.39Z" transform="translate(-49.2 -34.94)"/><path class="cls-2" d="M262.25,217.92c7.85-3.65,11.71-15.24,11.74-24s10.47-35,10.47-35l.2.23c-.53,6,.51,14.34.77,18.62.32,5.52-2.24,20-2.24,28.49s-6.83,17.54-13.32,23.32S250,247.36,250,247.36l-6.16-1h0C244.2,243.25,254.41,221.57,262.25,217.92Z" transform="translate(-49.2 -34.94)"/><path class="cls-12" d="M238.06,262.24a60.22,60.22,0,0,0,12-14.88s13.35-12,19.85-17.78,13.32-14.87,13.32-23.32,2.56-23,2.24-28.49c0-.47-.07-1-.11-1.55,0-.24,0-.5-.06-.76,0-.07,0-.15,0-.22-.38-4.55-1-11.13-.58-16.09h0a15.7,15.7,0,0,1,.91-4.45c1.54-3.77,4.86-5.51,4.83-11.5h0c27.3-1.76,45-31.17,42.87-35.93s-15.59-3.9-26.85-3.9c-9,0-18.45,9-21.95,12.73-.52-.5-1.31-1.25-2.36-2.22,9-10.69,28.67-34.78,52.19-26.72,24.56,8.43,27.37,44.92,21.75,65.27s-32.63,49.89-47.72,58.94c-17.54,10.53-1.4,18.95,10,13.34,8.34-4.1,49.63-18.25,74.19-66.67S383.44,44.36,335,35.94c-42.8-7.45-85,29-96.19,45.27l-1.23-.6-.61-.27c-.5-.23-1-.45-1.5-.66l-.71-.28c-.49-.2-1-.38-1.45-.54l-.57-.21c-.66-.22-1.3-.41-1.93-.58l-.29-.07c-.53-.13-1.05-.25-1.56-.34l-.56-.09c-.43-.07-.85-.12-1.27-.15l-.51,0a12.66,12.66,0,0,0-1.63,0V262.24C228.9,262.24,232,267.44,238.06,262.24Z" transform="translate(-49.2 -34.94)"/><path class="cls-13" d="M272,262.64c-.3-2.7-1.8-2.09-1.8-2.09s1.05,4.27.68,15.74c-.37,11.1-4.67,16.87-4.94,17.22,0-.22.32-1.95-.39-2.23-2.32,7.11-16,21.36-23.23,26.08a4.45,4.45,0,0,0,.6-4.5s-12.14,12.44-17.62,13.79c-2.54-6.82-18.13-13.49-18.13-13.49a7.32,7.32,0,0,0,0,3.82c-10.72-5.69-22.26-25.33-22.26-25.33a6.68,6.68,0,0,0-.9,3.45c-6.6-10.2-3.9-33.73-3.9-33.73a4.44,4.44,0,0,0-2.25,1.42c1.12-11.91,4.11-31.6,4.11-31.6,6.69,6.23,9.25,6,16.87,5.7-5.34,4.66,6.88,18.21,9.63,20.46a7,7,0,0,0,9,0c4.28-3.67.83-6.12.83-6.12a7.9,7.9,0,0,0,1.42-.16,8.12,8.12,0,0,0,1.09-.29,14.35,14.35,0,0,1,1.63-.3,17.23,17.23,0,0,1,2.2-.13c.77,0,1.34,0,1.49,0a20.8,20.8,0,0,1,2.12.19,9.91,9.91,0,0,1,1.13.23c.47.12.66.2,1.06.28a5.91,5.91,0,0,0,1.08.13c-.28.43-1.87,3-.87,5.17,1.28,2.79,5.79,2.73,6,2.73,5.8.08,19.48-15,14.56-22.2a23.05,23.05,0,0,0,17.75-6.49C273.82,235,272.54,257.09,272,262.64Z" transform="translate(-49.2 -34.94)"/><path class="cls-14" d="M270.9,276.29c-.37,11.1-4.67,16.87-4.94,17.22,0-.22.32-1.95-.39-2.23-2.32,7.11-16,21.36-23.23,26.08a4.45,4.45,0,0,0,.6-4.5s-12.14,12.44-17.62,13.79c-2.54-6.82-18.13-13.49-18.13-13.49a7.32,7.32,0,0,0,0,3.82c-10.72-5.69-22.26-25.33-22.26-25.33a6.68,6.68,0,0,0-.9,3.45c-5.09-7.87-4.65-23.68-4.18-30.49.47,5.78,1.64,11.71,4.18,15.65a6.68,6.68,0,0,1,.9-3.45s11.54,19.64,22.26,25.33a7.32,7.32,0,0,1,0-3.82s15.59,6.67,18.13,13.49c5.48-1.35,17.62-13.79,17.62-13.79a4.45,4.45,0,0,1-.6,4.5c7.19-4.72,20.91-19,23.23-26.08.71.28.42,2,.39,2.23.24-.33,3.84-5.15,4.76-14.41A108.92,108.92,0,0,1,270.9,276.29Z" transform="translate(-49.2 -34.94)"/><path class="cls-15" d="M265.9,256.5s2.85,3.15.9,9.14c-.6-1.38-.68-2.32-1.5-2.77,0,2.32-2.17,14.24-9.67,16.71a10,10,0,0,0,2.1-4.72,11.61,11.61,0,0,0-6.82,9.52c-.53-10.34,3.67-14.62,4.65-16.19a17.14,17.14,0,0,0,1.57-4.27s1.5-1.05,1.12,1.72c2.63-.3,4.2-4.87,4.2-7.42a5.23,5.23,0,0,1,1,3.45S266,258,265.9,256.5Z" transform="translate(-49.2 -34.94)"/><path class="cls-15" d="M185.51,256.5s-2.85,3.15-.9,9.14c.6-1.38.68-2.32,1.5-2.77,0,2.32,2.17,14.24,9.67,16.71a10,10,0,0,1-2.1-4.72,11.61,11.61,0,0,1,6.82,9.52c.53-10.34-3.67-14.62-4.65-16.19a17.14,17.14,0,0,1-1.57-4.27s-1.5-1.05-1.12,1.72c-2.63-.3-4.2-4.87-4.2-7.42a5.23,5.23,0,0,0-1,3.45S185.44,258,185.51,256.5Z" transform="translate(-49.2 -34.94)"/><path class="cls-15" d="M216.13,265.11a6,6,0,0,0,5.54-3.89s-3.59,7.6-2.77,13.32a8,8,0,0,1,2.77-4.63s3.3,9.45-1.35,13.49c8.1-8.24,5.59-12.89,5.59-12.89s3,1.5,1.61,6.6c3.75-4.65.35-12.44.35-12.44s2,4.43,5.35,4.31c-1.5-2.67-6.45-9-4.05-16.41-1.63-.46-1.9-.84-3.92-.84a16.18,16.18,0,0,0-5.64.84S222.93,260.09,216.13,265.11Z" transform="translate(-49.2 -34.94)"/><path class="cls-16" d="M280.37,236.28c-.19.27-4.39,6.4-13.62,10.34a43.19,43.19,0,0,1-18.89,3.25l-1.88-.11c-14.06-1.24-21.26-9.79-21.26-9.79s-7.19,8.55-21.24,9.79l-2,.11a43.36,43.36,0,0,1-18.55-3.15c-9.39-3.94-13.67-10.17-13.85-10.44.25.12,5.63,2.86,15.73.89-4.92.54-6.65-2.94-6.74-3.14.4.05,11,1.61,15.39-1.81a6.77,6.77,0,0,1-4.5-.79,107.71,107.71,0,0,0,20.46-9c9.45-5.62,15.29,4.73,15.29,4.73s5.85-10.35,15.29-4.73a108,108,0,0,0,20.46,9,6.71,6.71,0,0,1-4.49.79c4.41,3.42,15,1.86,15.39,1.81-.09.2-1.82,3.68-6.73,3.14C274.73,239.14,280.12,236.4,280.37,236.28Z" transform="translate(-49.2 -34.94)"/><path class="cls-14" d="M280.37,236.28c-.19.27-4.39,6.4-13.62,10.34a43.19,43.19,0,0,1-18.89,3.25l-1.88-.11c-14.06-1.24-21.26-9.79-21.26-9.79s-7.19,8.55-21.24,9.79l-2,.11a43.36,43.36,0,0,1-18.55-3.15c-9.39-3.94-13.67-10.17-13.85-10.44.21.1,4.06,2.06,11.29,1.49.81.41,1.66.81,2.56,1.19a43.07,43.07,0,0,0,18.55,3.14c.65,0,1.31-.06,2-.1,14.05-1.25,21.24-9.79,21.24-9.79s7.2,8.54,21.26,9.79c.63,0,1.26.08,1.88.1a43.22,43.22,0,0,0,18.89-3.23c.82-.36,1.59-.71,2.33-1.09C276.31,238.34,280.15,236.38,280.37,236.28Z" transform="translate(-49.2 -34.94)"/><path class="cls-13" d="M225.66,227.94s4.16-5.84,8.21-4.16,10.68,4.84,14.73,4.84H241s6.07,2,9,1.35C246.69,231.31,235.91,236,225.66,227.94Z" transform="translate(-49.2 -34.94)"/><path class="cls-13" d="M223.53,227.94s-4.16-5.84-8.21-4.16-10.68,4.84-14.73,4.84h7.65s-6.07,2-9,1.35C202.5,231.31,213.28,236,223.53,227.94Z" transform="translate(-49.2 -34.94)"/></g></g></svg>