<svg width="301" height="250" viewBox="0 0 301 250" fill="none" xmlns="http://www.w3.org/2000/svg">
<g clip-path="url(#clip0)">
<path d="M100.587 70.8838C100.587 70.8838 90.2408 58.637 80.6203 58.637C70.9999 58.637 59.5254 57.8914 57.6799 61.9794C55.8344 66.0673 70.9743 91.2636 94.3077 92.7719C117.641 94.2803 100.587 70.8838 100.587 70.8838Z" fill="#563D2C"/>
<path d="M128.842 182.039C128.842 182.039 117.436 171.754 111.882 166.801C106.329 161.847 100.502 154.057 100.502 146.815C100.502 139.574 98.3148 127.104 98.5882 122.399C98.8616 117.694 100.297 107.084 98.46 102.628C96.6231 98.1711 91.9239 97.057 95.8114 85.0845C99.6989 73.112 98.7761 70.1467 98.7761 70.1467C98.7761 70.1467 134.379 35.249 150.202 36.3632V178.731L128.842 182.039Z" fill="#705543"/>
<path d="M126.458 46.9216C124.331 48.9356 122.767 51.0181 122.255 53.0664C119.845 62.725 133.917 71.2608 139.044 77.5685C144.17 83.8761 143.17 102.071 150.202 102.533V36.3632C144.153 35.9347 135.199 40.7768 126.458 46.9216Z" fill="#563D2C"/>
<path d="M102.357 68.801C106.065 73.1375 143.128 53.769 140.727 44.1447C138.327 34.5204 97.5722 -6.37635 56.2197 0.848287C14.8671 8.07293 -13.9429 63.9932 7.04092 105.456C28.0248 146.918 63.294 159.079 70.4282 162.593C80.1853 167.401 93.9752 160.185 78.9721 151.16C66.0793 143.404 43.0022 118.088 38.2091 100.648C33.416 83.2075 35.8083 51.935 56.7921 44.7103C77.7759 37.4857 95.1714 60.3852 102.357 68.801Z" fill="#332925"/>
<path d="M59.6365 25.7533C27.1696 31.9838 9.54355 74.2004 26.0675 106.878C42.5914 139.556 68.4794 151.058 74.0928 153.826C76.8409 155.183 80.0112 155.402 82.9186 154.434C81.673 153.264 80.3002 152.238 78.8261 151.375C65.9333 143.619 42.8477 118.302 38.0546 100.862C33.2614 83.4219 35.7135 52.1065 56.6632 44.8819C77.6129 37.6573 95.0254 60.5224 102.228 68.9469C104.415 71.5179 118.265 65.7845 128.714 58.6627C123.391 48.8927 94.4273 19.0257 59.6365 25.7533Z" fill="#282322"/>
<path d="M94.2991 77.1742C95.2988 72.2293 77.2882 65.296 70.9999 65.6645C64.7116 66.033 72.102 68.6212 75.8101 71.4151C79.5182 74.209 76.3142 77.9113 81.4235 79.771C86.5327 81.6307 93.1799 82.7705 94.2991 77.1742Z" fill="#705543"/>
<path d="M103.21 93.6461C106.628 92.8405 111.754 101.145 112.848 105.302C113.942 109.458 112.643 106.484 111.857 105.302C111.071 104.119 110.533 103.322 109.294 103.425C108.055 103.527 103.005 104.042 101.203 101.582C96.3753 95.0345 101.254 94.1089 103.21 93.6461Z" fill="#302315"/>
<path d="M99.4084 96.56C99.6476 97.9997 100.596 103.03 105.261 102.499C109.926 101.968 108.226 98.0083 107.038 96.56C105.85 95.1116 105.517 94.3917 104.253 94.0489C102.441 93.569 99.2204 95.4458 99.4084 96.56Z" fill="#B5C4B3"/>
<path d="M101.126 97.7426C100.476 98.3939 101.519 99.3195 102.834 99.191C104.15 99.0624 106.124 98.8053 105.27 97.7426C105.013 97.4436 104.695 97.2036 104.337 97.0392C103.98 96.8747 103.591 96.7895 103.198 96.7895C102.804 96.7895 102.415 96.8747 102.058 97.0392C101.7 97.2036 101.382 97.4436 101.126 97.7426Z" fill="#212425"/>
<path d="M103.21 97.1341C103.21 97.4427 102.706 97.6912 102.074 97.6912C101.442 97.6912 100.938 97.4427 100.938 97.1341C100.938 96.8256 101.442 96.5685 102.074 96.5685C102.706 96.5685 103.21 96.817 103.21 97.1341Z" fill="#EAEAE6"/>
<path d="M104.227 98.9339C104.264 99.104 104.236 99.2819 104.147 99.4315C104.058 99.5812 103.916 99.6913 103.749 99.7395C103.677 99.7928 103.595 99.829 103.507 99.8453C103.42 99.8615 103.33 99.8574 103.244 99.8333C103.159 99.8091 103.08 99.7656 103.013 99.706C102.947 99.6463 102.895 99.5723 102.862 99.4895C102.829 99.4067 102.815 99.3173 102.822 99.2283C102.829 99.1393 102.856 99.0531 102.901 98.9762C102.946 98.8994 103.008 98.8339 103.083 98.785C103.157 98.736 103.242 98.7049 103.33 98.6939C103.482 98.6112 103.659 98.59 103.826 98.6346C103.993 98.6792 104.137 98.7863 104.227 98.9339Z" fill="#EAEAE6"/>
<path d="M118.367 156.808C111.669 153.68 108.371 143.747 108.345 136.24C108.32 128.732 99.3998 106.244 99.3998 106.244L99.2289 106.441C99.6818 111.583 98.7847 118.731 98.5711 122.399C98.2977 127.13 100.485 139.539 100.485 146.815C100.485 154.091 106.312 161.847 111.865 166.801C117.419 171.754 128.842 182.039 128.842 182.039L134.105 181.182C133.798 178.516 125.074 159.936 118.367 156.808Z" fill="#563D2C"/>
<path d="M150.202 194.791C146.87 194.791 144.221 199.248 139.044 194.791C133.866 190.335 123.494 177.239 127.825 173.066C132.157 168.892 150.202 173.923 150.202 173.923V194.791Z" fill="#BA9E8C"/>
<path d="M131.807 178.731C131.807 178.731 125.493 170.837 125.493 167.504C125.493 164.17 126.886 159.431 125.493 154.7C124.1 149.969 125.595 141.056 131.098 136.043C136.6 131.029 143.538 111.541 150.202 111.541V181.524C150.202 181.524 141.453 187.455 131.807 178.731Z" fill="#BA9E8C"/>
<path d="M150.202 153.243C145.204 153.243 142.427 143.216 136.327 146.001C130.226 148.786 128.552 151.572 136.327 156.585C144.102 161.599 145.665 161.042 146.263 166.055C146.861 171.069 146.263 173.477 150.202 173.477V153.243Z" fill="#4A3928"/>
<path d="M141.658 153.243C136.668 151.94 132.824 148.795 131.781 152.686C133.028 154.262 134.561 155.585 136.301 156.585C142.837 160.802 144.982 161.085 145.853 164.059L146.238 164.196C146.238 164.196 146.682 154.546 141.658 153.243Z" fill="#302315"/>
<path d="M199.816 70.8838C199.816 70.8838 210.155 58.637 219.783 58.637C229.412 58.637 240.878 57.8914 242.724 61.9794C244.569 66.0673 229.421 91.2636 206.096 92.7719C182.771 94.2803 199.816 70.8838 199.816 70.8838Z" fill="#563D2C"/>
<path d="M171.562 182.039C171.562 182.039 182.968 171.754 188.521 166.801C194.075 161.847 199.902 154.057 199.902 146.815C199.902 139.574 202.089 127.104 201.816 122.399C201.542 117.694 200.107 107.084 201.935 102.628C203.764 98.1711 208.48 97.057 204.592 85.0845C200.705 73.112 201.628 70.1467 201.628 70.1467C201.628 70.1467 166.017 35.249 150.202 36.3632V178.731L171.562 182.039Z" fill="#705543"/>
<path d="M173.945 46.9216C176.073 48.9356 177.636 51.0181 178.149 53.0664C180.558 62.725 166.487 71.2608 161.36 77.5685C156.234 83.8761 157.234 102.071 150.202 102.533V36.3632C156.251 35.9347 165.196 40.7768 173.945 46.9216Z" fill="#563D2C"/>
<path d="M198.048 68.8012C194.348 73.1377 157.285 53.7691 159.686 44.1449C162.086 34.5206 202.832 -6.3762 244.185 0.84844C285.537 8.07308 314.347 63.9933 293.355 105.49C272.363 146.987 237.093 159.113 229.968 162.627C220.211 167.435 206.421 160.219 221.424 151.195C234.317 143.439 257.402 118.122 262.195 100.682C266.989 83.2419 264.596 51.9694 243.612 44.7448C222.629 37.5201 205.233 60.3853 198.048 68.8012Z" fill="#332925"/>
<path d="M240.46 25.7533C272.927 31.9838 290.561 74.2004 274.037 106.878C257.513 139.556 231.625 151.058 226.021 153.826C223.269 155.183 220.097 155.402 217.186 154.434C218.432 153.264 219.805 152.238 221.279 151.375C234.171 143.619 257.249 118.302 262.05 100.862C266.852 83.4219 264.443 52.1494 243.459 44.9248C222.475 37.7001 205.088 60.5653 197.894 68.9897C195.707 71.5608 181.857 65.8274 171.408 58.7056C176.731 48.8927 205.686 19.0257 240.46 25.7533Z" fill="#282322"/>
<path d="M206.096 77.1742C205.097 72.2293 223.116 65.296 229.404 65.6645C235.692 66.033 228.293 68.6212 224.594 71.4151C220.894 74.209 224.09 77.9113 218.972 79.771C213.854 81.6307 207.224 82.7705 206.096 77.1742Z" fill="#705543"/>
<path d="M197.193 93.6461C193.776 92.8405 188.65 101.145 187.556 105.302C186.462 109.458 187.761 106.484 188.547 105.302C189.333 104.119 189.871 103.322 191.11 103.425C192.349 103.527 197.398 104.042 199.201 101.582C204.029 95.0345 199.15 94.1089 197.193 93.6461Z" fill="#302315"/>
<path d="M200.995 96.56C200.756 97.9997 199.808 103.03 195.143 102.499C190.478 101.968 192.178 98.0083 193.366 96.56C194.553 95.1116 194.887 94.3917 196.151 94.0489C197.962 93.569 201.183 95.4458 200.995 96.56Z" fill="#B5C4B3"/>
<path d="M199.278 97.7426C199.936 98.3939 198.885 99.3195 197.569 99.191C196.254 99.0624 194.28 98.8053 195.143 97.7426C195.4 97.445 195.717 97.2064 196.074 97.0428C196.431 96.8792 196.818 96.7945 197.21 96.7945C197.603 96.7945 197.99 96.8792 198.347 97.0428C198.704 97.2064 199.021 97.445 199.278 97.7426Z" fill="#212425"/>
<path d="M197.193 97.1341C197.193 97.4427 197.697 97.6912 198.321 97.6912C198.945 97.6912 199.466 97.4427 199.466 97.1341C199.466 96.8256 198.953 96.5685 198.321 96.5685C197.689 96.5685 197.193 96.817 197.193 97.1341Z" fill="#EAEAE6"/>
<path d="M196.177 98.9339C196.14 99.104 196.168 99.2819 196.257 99.4315C196.346 99.5812 196.488 99.6913 196.655 99.7395C196.726 99.7928 196.809 99.829 196.897 99.8453C196.984 99.8615 197.074 99.8574 197.16 99.8333C197.245 99.8091 197.324 99.7656 197.39 99.706C197.457 99.6463 197.508 99.5723 197.542 99.4895C197.575 99.4067 197.588 99.3173 197.582 99.2283C197.575 99.1393 197.548 99.0531 197.503 98.9762C197.458 98.8994 197.395 98.8339 197.321 98.785C197.247 98.736 197.162 98.7049 197.074 98.6939C196.922 98.6112 196.744 98.59 196.578 98.6346C196.411 98.6792 196.267 98.7863 196.177 98.9339Z" fill="#EAEAE6"/>
<path d="M182.028 156.808C188.735 153.68 192.033 143.747 192.058 136.24C192.084 128.732 201.004 106.244 201.004 106.244L201.175 106.441C200.722 111.583 201.611 118.731 201.833 122.399C202.106 127.13 199.919 139.539 199.919 146.815C199.919 154.091 194.083 161.847 188.538 166.801C182.993 171.754 171.562 182.039 171.562 182.039L166.299 181.182C166.606 178.516 175.33 159.936 182.028 156.808Z" fill="#563D2C"/>
<path d="M150.202 194.791C153.534 194.791 156.14 199.248 161.36 194.791C166.581 190.335 176.91 177.239 172.578 173.066C168.247 168.892 150.202 173.923 150.202 173.923V194.791Z" fill="#BA9E8C"/>
<path d="M168.597 178.731C168.597 178.731 174.902 170.837 174.902 167.504C174.902 164.17 173.518 159.431 174.902 154.7C176.286 149.969 174.8 141.056 169.298 136.043C163.795 131.029 156.858 111.541 150.202 111.541V181.524C150.202 181.524 158.951 187.455 168.597 178.731Z" fill="#BA9E8C"/>
<path d="M150.202 153.243C155.2 153.243 157.977 143.216 164.077 146.001C170.178 148.786 171.852 151.572 164.077 156.585C156.302 161.599 154.739 161.042 154.132 166.055C153.525 171.069 154.132 173.477 150.202 173.477V153.243Z" fill="#4A3928"/>
<path d="M158.746 153.243C163.744 151.94 167.589 148.795 168.631 152.686C167.385 154.262 165.851 155.585 164.111 156.585C157.567 160.802 155.431 161.085 154.559 164.059L154.166 164.196C154.166 164.196 153.713 154.546 158.746 153.243Z" fill="#302315"/>
<path d="M150.202 181.524C150.202 181.524 146.272 182.039 142.717 182.853C139.992 183.47 133.405 178.568 131.807 178.731C130.209 178.893 136.583 183.016 139.044 184.301C141.299 185.367 143.849 185.627 146.272 185.038C147.559 184.729 148.878 184.576 150.202 184.584V181.524Z" fill="#4A3928"/>
<path d="M150.202 181.524C150.202 181.524 154.124 182.039 157.686 182.853C160.412 183.47 166.999 178.568 168.597 178.731C170.195 178.893 163.821 183.016 161.36 184.301C159.102 185.367 156.549 185.627 154.124 185.038C152.839 184.729 151.523 184.576 150.202 184.584V181.524Z" fill="#4A3928"/>
<path d="M190.358 195.134C190.102 192.82 188.82 193.343 188.82 193.343C188.82 193.343 189.718 197.002 189.401 206.832C189.085 216.345 185.411 221.29 185.181 221.59C185.181 221.401 185.454 219.919 184.847 219.679C182.865 225.772 171.177 237.985 165 242.03C165.423 241.492 165.693 240.851 165.783 240.172C165.874 239.493 165.78 238.803 165.513 238.173C165.513 238.173 155.14 248.834 150.458 249.991C148.288 244.147 134.968 238.43 134.968 238.43C134.679 239.502 134.679 240.632 134.968 241.704C125.809 236.828 115.949 219.996 115.949 219.996C115.431 220.893 115.165 221.915 115.18 222.953C109.541 214.211 111.848 194.045 111.848 194.045C111.099 194.244 110.428 194.669 109.926 195.262C110.883 185.055 113.437 168.181 113.437 168.181C119.153 173.52 121.341 173.323 127.851 173.066C123.289 177.059 133.729 188.672 136.079 190.6C137.156 191.507 138.517 192.004 139.924 192.004C141.33 192.004 142.691 191.507 143.768 190.6C147.425 187.455 144.478 185.355 144.478 185.355C144.885 185.346 145.291 185.301 145.691 185.218C146.007 185.157 146.318 185.074 146.622 184.97C147.081 184.857 147.546 184.771 148.015 184.713C148.638 184.635 149.266 184.598 149.894 184.601C150.552 184.601 151.039 184.601 151.167 184.601C151.774 184.624 152.378 184.679 152.979 184.764C153.304 184.811 153.626 184.877 153.944 184.961C154.346 185.064 154.508 185.133 154.85 185.201C155.153 185.267 155.462 185.304 155.773 185.312C155.533 185.681 154.175 187.884 155.029 189.743C156.123 192.134 159.976 192.083 160.156 192.083C165.111 192.151 176.799 179.228 172.596 173.057C175.372 173.258 178.159 172.866 180.773 171.907C183.387 170.948 185.768 169.445 187.761 167.495C191.913 171.446 190.82 190.377 190.358 195.134Z" fill="#6D2F0D"/>
<g style="mix-blend-mode:multiply" opacity="0.2">
<path d="M189.418 206.832C189.102 216.345 185.428 221.29 185.198 221.59C185.198 221.401 185.471 219.919 184.865 219.679C182.882 225.772 171.194 237.985 165.017 242.03C165.44 241.492 165.71 240.851 165.801 240.172C165.891 239.493 165.797 238.803 165.53 238.173C165.53 238.173 155.157 248.834 150.475 249.991C148.305 244.147 134.985 238.43 134.985 238.43C134.696 239.502 134.696 240.632 134.985 241.704C125.826 236.828 115.966 219.996 115.966 219.996C115.448 220.893 115.182 221.915 115.198 222.953C110.849 216.208 111.225 202.658 111.626 196.822C112.028 201.776 113.027 206.858 115.198 210.234C115.182 209.197 115.448 208.175 115.966 207.278C115.966 207.278 125.826 224.11 134.985 228.986C134.696 227.914 134.696 226.784 134.985 225.712C134.985 225.712 148.305 231.428 150.475 237.273C155.157 236.116 165.53 225.455 165.53 225.455C165.797 226.085 165.891 226.775 165.801 227.454C165.71 228.132 165.44 228.774 165.017 229.312C171.16 225.267 182.882 213.028 184.865 206.961C185.471 207.201 185.223 208.675 185.198 208.872C185.403 208.589 188.479 204.458 189.265 196.522C189.505 199.953 189.557 203.395 189.418 206.832Z" fill="#1D1D1B"/>
</g>
<path d="M185.146 189.872C185.146 189.872 187.581 192.571 185.915 197.705C185.403 196.522 185.334 195.717 184.634 195.331C184.634 197.319 182.78 207.535 176.372 209.652C177.313 208.484 177.932 207.089 178.166 205.607C176.561 206.327 175.176 207.461 174.152 208.895C173.128 210.329 172.502 212.009 172.339 213.765C171.886 204.904 175.475 201.236 176.312 199.89C176.919 198.736 177.37 197.505 177.653 196.231C177.653 196.231 178.935 195.331 178.61 197.705C180.857 197.448 182.199 193.531 182.199 191.346C182.823 192.199 183.125 193.247 183.053 194.303C183.053 194.303 185.232 191.157 185.146 189.872Z" fill="#5E2810"/>
<path d="M116.462 189.872C116.462 189.872 114.027 192.571 115.693 197.705C116.206 196.522 116.274 195.717 116.975 195.331C116.975 197.319 118.829 207.535 125.237 209.652C124.296 208.484 123.677 207.089 123.442 205.607C125.047 206.327 126.433 207.461 127.457 208.895C128.48 210.329 129.106 212.009 129.269 213.765C129.722 204.904 126.134 201.236 125.296 199.89C124.689 198.736 124.238 197.505 123.955 196.231C123.955 196.231 122.673 195.331 122.998 197.705C120.751 197.448 119.41 193.531 119.41 191.346C118.786 192.199 118.483 193.247 118.555 194.303C118.555 194.303 116.402 191.157 116.462 189.872Z" fill="#5E2810"/>
<path d="M142.623 197.251C143.655 197.237 144.659 196.912 145.504 196.317C146.348 195.722 146.994 194.886 147.357 193.917C147.357 193.917 144.29 200.43 144.99 205.332C145.297 203.775 146.134 202.372 147.357 201.364C147.357 201.364 150.176 209.463 146.203 212.926C153.124 205.864 150.979 201.879 150.979 201.879C150.979 201.879 153.543 203.164 152.355 207.535C155.559 203.55 152.654 196.874 152.654 196.874C152.654 196.874 154.363 200.67 157.225 200.567C155.943 198.279 151.714 192.854 153.765 186.504C152.372 186.11 152.141 185.784 150.416 185.784C148.779 185.736 147.148 185.98 145.597 186.504C145.597 186.504 148.433 192.948 142.623 197.251Z" fill="#5E2810"/>
<path d="M197.51 172.543C197.347 172.774 193.759 178.028 185.873 181.404C180.769 183.534 175.253 184.486 169.733 184.19L168.127 184.096C156.114 183.033 149.963 175.705 149.963 175.705C149.963 175.705 143.82 183.033 131.815 184.096L130.107 184.19C124.69 184.464 119.28 183.543 114.258 181.49C106.235 178.114 102.578 172.774 102.424 172.543C102.638 172.646 107.235 174.994 115.864 173.306C111.66 173.768 110.182 170.786 110.105 170.615C110.447 170.658 119.504 171.994 123.254 169.063C121.933 169.291 120.574 169.052 119.41 168.386C125.488 166.43 131.346 163.845 136.89 160.673C144.964 155.857 149.954 164.727 149.954 164.727C149.954 164.727 154.952 155.857 163.018 160.673C168.563 163.844 174.421 166.429 180.499 168.386C179.338 169.054 177.981 169.294 176.662 169.063C180.43 171.994 189.478 170.658 189.811 170.615C189.735 170.786 188.256 173.768 184.061 173.306C192.691 174.994 197.296 172.646 197.51 172.543Z" fill="#56240B"/>
<g style="mix-blend-mode:multiply" opacity="0.2">
<path d="M197.51 172.543C197.347 172.774 193.759 178.028 185.873 181.404C180.769 183.534 175.253 184.486 169.733 184.19L168.127 184.096C156.114 183.033 149.963 175.705 149.963 175.705C149.963 175.705 143.82 183.033 131.815 184.096L130.107 184.19C124.69 184.464 119.28 183.543 114.258 181.49C106.235 178.114 102.578 172.774 102.424 172.543C102.604 172.629 105.893 174.308 112.07 173.82C112.763 174.171 113.489 174.514 114.258 174.84C119.278 176.897 124.691 177.816 130.107 177.531C130.662 177.531 131.226 177.479 131.815 177.445C143.82 176.374 149.963 169.055 149.963 169.055C149.963 169.055 156.114 176.374 168.127 177.445C168.665 177.445 169.204 177.514 169.733 177.531C175.252 177.831 180.767 176.885 185.873 174.763C186.573 174.454 187.231 174.154 187.863 173.828C194.041 174.308 197.322 172.629 197.51 172.543Z" fill="#1D1D1B"/>
</g>
<path d="M150.766 165.395C150.766 165.395 154.32 160.39 157.78 161.83C161.241 163.27 166.905 165.978 170.366 165.978H163.872C163.872 165.978 169.058 167.692 171.562 167.135C168.734 168.284 159.523 172.303 150.766 165.395Z" fill="#6D2F0D"/>
<path d="M148.946 165.395C148.946 165.395 145.392 160.39 141.931 161.83C138.471 163.27 132.806 165.978 129.346 165.978H135.882C135.882 165.978 130.696 167.692 128.193 167.135C130.978 168.284 140.188 172.303 148.946 165.395Z" fill="#6D2F0D"/>
</g>
<defs>
<clipPath id="clip0">
<path d="M0 0H300.395V250H0V0Z" fill="white"/>
</clipPath>
</defs>
</svg>
