<svg width="176" height="63" viewBox="0 0 176 63" fill="none" xmlns="http://www.w3.org/2000/svg">
<g clip-path="url(#clip0)">
<path d="M43.6436 25.75H26.3579C26.1495 25.75 25.9496 25.8356 25.8023 25.988C25.6549 26.1403 25.5722 26.347 25.5722 26.5625V28.1875C25.5722 28.403 25.6549 28.6097 25.8023 28.762C25.9496 28.9144 26.1495 29 26.3579 29H43.6436C43.852 29 44.0518 28.9144 44.1992 28.762C44.3465 28.6097 44.4293 28.403 44.4293 28.1875V26.5625C44.4293 26.347 44.3465 26.1403 44.1992 25.988C44.0518 25.8356 43.852 25.75 43.6436 25.75ZM44.4293 11.125H36.5722V8.6875H38.5364C38.6406 8.6875 38.7406 8.6447 38.8142 8.56851C38.8879 8.49233 38.9293 8.38899 38.9293 8.28125V5.84375C38.9293 5.73601 38.8879 5.63267 38.8142 5.55649C38.7406 5.4803 38.6406 5.4375 38.5364 5.4375H36.5722V3.40625C36.5722 3.29851 36.5308 3.19517 36.4571 3.11899C36.3834 3.0428 36.2835 3 36.1793 3H33.8222C33.718 3 33.618 3.0428 33.5444 3.11899C33.4707 3.19517 33.4293 3.29851 33.4293 3.40625V5.4375H31.465C31.3608 5.4375 31.2609 5.4803 31.1872 5.55649C31.1136 5.63267 31.0722 5.73601 31.0722 5.84375V8.28125C31.0722 8.38899 31.1136 8.49233 31.1872 8.56851C31.2609 8.6447 31.3608 8.6875 31.465 8.6875H33.4293V11.125H25.5722C25.3258 11.1252 25.0829 11.1853 24.8632 11.3004C24.6434 11.4156 24.4529 11.5826 24.307 11.7879C24.1611 11.9932 24.064 12.2311 24.0234 12.4824C23.9828 12.7336 24 12.9913 24.0734 13.2345L27.6622 24.125H42.3393L45.9281 13.2345C46.0015 12.9913 46.0186 12.7336 45.9781 12.4824C45.9375 12.2311 45.8403 11.9932 45.6945 11.7879C45.5486 11.5826 45.3581 11.4156 45.1383 11.3004C44.9185 11.1853 44.6757 11.1252 44.4293 11.125Z" fill="#202020"/>
</g>
<path d="M13.28 33C14.9867 33 16.4933 33.4133 17.8 34.24C19.1067 35.0667 20.12 36.24 20.84 37.76C21.5867 39.28 21.96 41.0533 21.96 43.08C21.96 45.08 21.5867 46.8533 20.84 48.4C20.12 49.9467 19.0933 51.1467 17.76 52C16.4533 52.8533 14.96 53.28 13.28 53.28C11.8133 53.28 10.52 52.9733 9.4 52.36C8.28 51.72 7.42667 50.8133 6.84 49.64V53H2.8V24.8H6.84V36.68C7.42667 35.5067 8.28 34.6 9.4 33.96C10.52 33.32 11.8133 33 13.28 33ZM12.32 50.08C14.0533 50.08 15.4 49.4667 16.36 48.24C17.3467 47.0133 17.84 45.2933 17.84 43.08C17.84 40.8933 17.36 39.2133 16.4 38.04C15.44 36.84 14.08 36.24 12.32 36.24C10.56 36.24 9.2 36.84 8.24 38.04C7.30667 39.24 6.84 40.9467 6.84 43.16C6.84 45.3733 7.30667 47.08 8.24 48.28C9.2 49.48 10.56 50.08 12.32 50.08ZM34.5928 33C37.2061 33 39.1395 33.6533 40.3928 34.96C41.6728 36.2667 42.3128 38.2533 42.3128 40.92V53H38.4328V49.76C37.9261 50.9067 37.1661 51.7867 36.1528 52.4C35.1661 52.9867 34.0061 53.28 32.6728 53.28C31.3928 53.28 30.2195 53.0267 29.1528 52.52C28.0861 51.9867 27.2461 51.2533 26.6328 50.32C26.0461 49.3867 25.7528 48.3467 25.7528 47.2C25.7528 45.7867 26.1128 44.68 26.8328 43.88C27.5795 43.0533 28.7928 42.4667 30.4728 42.12C32.1795 41.7733 34.5128 41.6 37.4728 41.6H38.3928V40.44C38.3928 38.9467 38.0728 37.8667 37.4328 37.2C36.8195 36.5333 35.8061 36.2 34.3928 36.2C32.1795 36.2 29.9661 36.88 27.7528 38.24L26.5528 35.4C27.5928 34.68 28.8461 34.1067 30.3128 33.68C31.8061 33.2267 33.2328 33 34.5928 33ZM33.3928 50.28C34.8595 50.28 36.0595 49.7867 36.9928 48.8C37.9261 47.7867 38.3928 46.4933 38.3928 44.92V43.88H37.6728C35.5928 43.88 33.9928 43.9733 32.8728 44.16C31.7528 44.3467 30.9528 44.6667 30.4728 45.12C29.9928 45.5467 29.7528 46.1733 29.7528 47C29.7528 47.9333 30.0861 48.72 30.7528 49.36C31.4461 49.9733 32.3261 50.28 33.3928 50.28ZM59.7191 36.4L57.2791 36.64C55.3591 36.8267 53.9724 37.4133 53.1191 38.4C52.2924 39.3867 51.8791 40.64 51.8791 42.16V53H47.8391V33.48H51.7591V36.88C52.7991 34.5867 54.9191 33.32 58.1191 33.08L59.4391 33L59.7191 36.4ZM72.9675 33C74.6742 33 76.1808 33.4133 77.4875 34.24C78.7942 35.0667 79.8075 36.24 80.5275 37.76C81.2742 39.28 81.6475 41.0533 81.6475 43.08C81.6475 45.08 81.2742 46.8533 80.5275 48.4C79.8075 49.9467 78.7808 51.1467 77.4475 52C76.1408 52.8533 74.6475 53.28 72.9675 53.28C71.5008 53.28 70.2075 52.9733 69.0875 52.36C67.9675 51.72 67.1142 50.8133 66.5275 49.64V53H62.4875V24.8H66.5275V36.68C67.1142 35.5067 67.9675 34.6 69.0875 33.96C70.2075 33.32 71.5008 33 72.9675 33ZM72.0075 50.08C73.7408 50.08 75.0875 49.4667 76.0475 48.24C77.0342 47.0133 77.5275 45.2933 77.5275 43.08C77.5275 40.8933 77.0475 39.2133 76.0875 38.04C75.1275 36.84 73.7675 36.24 72.0075 36.24C70.2475 36.24 68.8875 36.84 67.9275 38.04C66.9942 39.24 66.5275 40.9467 66.5275 43.16C66.5275 45.3733 66.9942 47.08 67.9275 48.28C68.8875 49.48 70.2475 50.08 72.0075 50.08ZM102.84 43.92H89.0403C89.3336 48.0533 91.387 50.12 95.2003 50.12C97.4403 50.12 99.467 49.3867 101.28 47.92L102.52 50.76C101.614 51.5333 100.494 52.1467 99.1603 52.6C97.827 53.0533 96.467 53.28 95.0803 53.28C91.9603 53.28 89.4936 52.3867 87.6803 50.6C85.8936 48.8133 85.0003 46.3467 85.0003 43.2C85.0003 41.2 85.387 39.4267 86.1603 37.88C86.9603 36.3333 88.067 35.1333 89.4803 34.28C90.9203 33.4267 92.547 33 94.3603 33C97.0003 33 99.067 33.8533 100.56 35.56C102.08 37.2667 102.84 39.6267 102.84 42.64V43.92ZM94.4403 35.96C92.8936 35.96 91.6536 36.4533 90.7203 37.44C89.8136 38.4 89.267 39.7867 89.0803 41.6H99.3603C99.2803 39.7867 98.8136 38.4 97.9603 37.44C97.1336 36.4533 95.9603 35.96 94.4403 35.96ZM116.337 50.16C116.95 50.16 117.55 50.12 118.137 50.04L117.937 53.12C117.27 53.2267 116.577 53.28 115.857 53.28C113.324 53.28 111.43 52.6667 110.177 51.44C108.95 50.1867 108.337 48.3867 108.337 46.04V36.6H104.537V33.48H108.337V27.6H112.377V33.48H117.737V36.6H112.377V45.88C112.377 48.7333 113.697 50.16 116.337 50.16ZM130.36 50.16C130.974 50.16 131.574 50.12 132.16 50.04L131.96 53.12C131.294 53.2267 130.6 53.28 129.88 53.28C127.347 53.28 125.454 52.6667 124.2 51.44C122.974 50.1867 122.36 48.3867 122.36 46.04V36.6H118.56V33.48H122.36V27.6H126.4V33.48H131.76V36.6H126.4V45.88C126.4 48.7333 127.72 50.16 130.36 50.16ZM143.702 53.28C141.782 53.28 140.089 52.8667 138.622 52.04C137.182 51.2133 136.062 50.04 135.262 48.52C134.489 46.9733 134.102 45.1867 134.102 43.16C134.102 41.1067 134.489 39.32 135.262 37.8C136.062 36.2533 137.182 35.0667 138.622 34.24C140.089 33.4133 141.782 33 143.702 33C145.622 33 147.302 33.4133 148.742 34.24C150.209 35.0667 151.329 36.2533 152.102 37.8C152.902 39.32 153.302 41.1067 153.302 43.16C153.302 45.1867 152.902 46.9733 152.102 48.52C151.329 50.04 150.209 51.2133 148.742 52.04C147.302 52.8667 145.622 53.28 143.702 53.28ZM143.702 50.08C145.489 50.08 146.849 49.4933 147.782 48.32C148.742 47.1467 149.222 45.4267 149.222 43.16C149.222 40.92 148.742 39.2133 147.782 38.04C146.822 36.84 145.462 36.24 143.702 36.24C141.942 36.24 140.582 36.84 139.622 38.04C138.662 39.2133 138.182 40.92 138.182 43.16C138.182 45.4267 138.649 47.1467 139.582 48.32C140.542 49.4933 141.915 50.08 143.702 50.08ZM161.534 48.24V53H156.774V48.24H161.534Z" fill="#202020"/>
<defs>
<clipPath id="clip0">
<rect x="24" y="3" width="22" height="26" fill="white"/>
</clipPath>
</defs>
</svg>
