<svg width="1144" height="599" viewBox="0 0 1144 599" fill="none" xmlns="http://www.w3.org/2000/svg">
<g opacity="0.05">
<g clip-path="url(#clip0)">
<path d="M841.45 379.734L789.861 397.887L792.339 400.37C792.339 400.37 766.278 410.221 752.69 408.363C759.536 412.274 769.884 418.452 777.059 421.98C783.748 425.272 791.907 426.949 798.308 424.211C809.678 419.32 833.626 405.994 853.245 396.545L853.829 393.605C856.048 382.858 850.444 376.642 841.45 379.734Z" fill="#155396"/>
<path d="M789.861 397.887C777.633 395.833 765.298 394.477 752.915 393.827C742.106 393.642 739.076 398.031 742.412 402.115C743.319 402.912 743.88 403.472 745.996 405.238C747.048 406.148 750.737 407.19 752.701 408.309C766.343 410.178 792.349 400.316 792.349 400.316L789.861 397.887Z" fill="#1D66A8"/>
<path d="M855.728 399.001C836.055 408.579 812.182 421.809 800.764 426.662C794.39 429.405 786.231 427.728 779.515 424.431C770.317 419.8 755.815 410.974 750.242 408.129C740.413 403.148 740.879 395.866 755.371 396.278C767.761 396.947 780.103 398.313 792.339 400.37L843.89 382.265C852.922 379.125 858.504 385.309 856.387 395.964L855.728 399.001Z" fill="#0E3056"/>
<path d="M859.438 395.56L807.838 413.628L810.294 416.078C810.294 416.078 784.255 425.962 770.64 424.098C777.513 428.015 787.834 434.187 795.009 437.715C801.73 440.986 809.884 442.69 816.258 439.947C827.628 435.056 851.576 421.729 871.222 412.285L871.806 409.345C873.998 398.593 868.475 392.393 859.438 395.56Z" fill="#155396"/>
<path d="M807.838 413.628C795.602 411.571 783.26 410.205 770.871 409.535C760.002 409.227 757.026 413.766 760.379 417.909C761.285 418.706 761.82 419.261 763.935 421.027C765.02 421.916 768.676 422.979 770.64 424.098C784.282 425.967 810.294 416.078 810.294 416.078L807.838 413.628Z" fill="#1D66A8"/>
<path d="M873.678 414.736C854.038 424.293 830.079 437.533 818.72 442.51C812.318 445.248 804.159 443.571 797.47 440.279C788.246 435.643 773.749 426.79 768.198 423.977C758.342 418.991 758.808 411.709 773.354 412.132C785.735 412.797 798.069 414.152 810.3 416.192L861.759 397.984C870.796 394.817 876.427 400.898 874.283 411.688L873.678 414.736Z" fill="#0E3056"/>
<path d="M872.763 407.489L821.217 425.567L823.695 428.05C823.695 428.05 797.769 437.927 784.127 436.058C790.973 439.97 801.321 446.147 808.496 449.676C815.185 452.967 823.344 454.644 829.745 451.907C841.018 446.941 864.956 433.808 884.574 424.219L885.158 421.279C887.296 410.516 881.801 404.321 872.763 407.489Z" fill="#155396"/>
<path d="M821.217 425.567C808.958 423.566 796.597 422.252 784.191 421.631C773.295 421.317 770.351 425.835 773.677 429.973C774.584 430.77 775.118 431.324 777.261 433.096C778.313 434.006 782.002 435.047 783.966 436.166C797.608 438.036 823.614 428.174 823.614 428.174L821.217 425.567Z" fill="#1D66A8"/>
<path d="M887.084 426.68C867.412 436.259 843.485 449.478 832.12 454.341C825.746 457.084 817.587 455.407 810.871 452.11C801.673 447.479 787.144 438.648 781.593 435.835C771.77 430.827 772.235 423.546 786.754 423.963C799.144 424.632 811.486 425.998 823.722 428.055L875.246 409.945C884.278 406.804 889.887 412.853 887.743 423.643L887.084 426.68Z" fill="#0E3056"/>
<path d="M885.813 418.689L834.24 436.762L836.717 439.245C836.717 439.245 810.657 449.096 797.069 447.237C803.915 451.149 814.263 457.327 821.437 460.855C828.126 464.147 836.285 465.824 842.687 463.086C854.051 458.222 878.005 444.868 897.623 435.42L898.207 432.479C900.427 421.733 894.704 415.549 885.813 418.689Z" fill="#155396"/>
<path d="M834.24 436.762C822.014 434.705 809.683 433.331 797.305 432.648C786.436 432.339 783.465 436.852 786.791 440.989C787.698 441.786 788.259 442.347 790.374 444.113C791.427 445.023 795.116 446.064 797.079 447.183C810.722 449.053 836.728 439.191 836.728 439.191L834.24 436.762Z" fill="#1D66A8"/>
<path d="M900.106 437.875C880.434 447.454 856.507 460.673 845.143 465.537C838.768 468.28 830.609 466.602 823.893 463.305C814.696 458.674 800.193 449.849 794.621 447.003C784.792 442.022 785.258 434.741 799.777 435.158C812.166 435.827 824.508 437.193 836.744 439.25L888.269 421.14C897.301 417.999 902.909 424.049 900.766 434.838L900.106 437.875Z" fill="#0E3056"/>
<path d="M899.192 430.628L847.641 448.733L849.962 451.157C849.962 451.157 824.009 461.029 810.362 459.187C817.24 463.077 827.556 469.276 834.735 472.778C841.452 476.075 849.611 477.752 855.985 475.009C867.35 470.145 891.303 456.791 910.948 447.348L911.527 444.435C913.833 433.677 908.197 427.483 899.192 430.628Z" fill="#155396"/>
<path d="M847.641 448.733C835.414 446.677 823.081 445.313 810.7 444.646C799.804 444.332 796.828 448.872 800.186 452.988C801.093 453.785 801.622 454.366 803.737 456.133C804.822 457.021 808.479 458.084 810.442 459.203C824.09 461.045 850.096 451.184 850.096 451.184L847.641 448.733Z" fill="#1D66A8"/>
<path d="M913.485 449.814C893.835 459.425 869.913 472.617 858.549 477.481C852.147 480.219 843.988 478.541 837.294 475.277C828.069 470.64 813.572 461.788 808.022 458.974C798.171 453.961 798.637 446.68 813.183 447.102C825.563 447.77 837.896 449.134 850.123 451.189L901.648 433.079C910.68 429.938 916.283 436.155 914.145 446.917L913.485 449.814Z" fill="#0E3056"/>
<path d="M854.28 451.426C858.285 450.876 864.489 448.996 868.127 448.177C871.765 447.358 872.522 449.471 871.959 451.742L879.37 450.411L808.251 393.494L785.309 396.114C783.961 396.407 781.885 404.602 781.885 404.602L838.563 454.36C839.43 455.13 840.458 455.698 841.572 456.021C842.686 456.344 843.858 456.415 845.002 456.228L845.299 456.287C845.572 454.911 847.774 452.293 854.28 451.426Z" fill="white"/>
<path d="M868.756 447.405C865.118 448.224 859.103 449.16 855.125 449.856C848.064 451.116 846.452 451.189 846.109 452.915C845.996 453.481 845.707 454.938 845.455 456.206L872.072 451.877C872.522 449.471 872.669 446.472 868.756 447.405Z" fill="#999999"/>
<path d="M838.752 454.537C838.752 454.537 839.288 451.84 839.69 449.817C839.84 449.062 840.367 448.522 842.836 448.087C844.168 447.875 845.909 447.576 848.005 447.319C853.223 446.73 856.684 445.959 856.684 445.959L854.282 443.94C854.282 443.94 849.868 444.577 846.148 444.96C844.66 445.113 841.329 445.516 839.426 445.923C838.903 445.958 838.41 446.18 838.038 446.549C837.666 446.918 837.44 447.41 837.402 447.932L836.474 452.599L838.752 454.537Z" fill="#999999"/>
<path d="M831.434 448.205C831.434 448.205 831.97 445.507 832.372 443.484C832.522 442.729 833.022 442.184 835.513 441.781C836.844 441.569 838.429 441.211 840.682 441.014C845.873 440.419 849.36 439.654 849.36 439.654L846.959 437.635C846.959 437.635 842.517 438.266 838.798 438.649C837.337 438.807 833.984 439.178 832.108 439.591C831.583 439.619 831.087 439.839 830.714 440.21C830.34 440.58 830.116 441.075 830.083 441.6L829.156 446.266L831.434 448.205Z" fill="#999999"/>
<path d="M824.569 441.99C824.569 441.99 825.105 439.293 825.506 437.27C825.662 436.488 826.157 435.969 828.653 435.54C829.984 435.328 831.564 434.996 833.822 434.772C839.013 434.177 842.501 433.412 842.501 433.412L840.099 431.393C840.099 431.393 835.657 432.025 831.938 432.407C830.477 432.566 827.119 432.964 825.243 433.376C824.718 433.405 824.222 433.625 823.849 433.995C823.475 434.366 823.251 434.86 823.218 435.385L822.291 440.052L824.569 441.99Z" fill="#999999"/>
<path d="M817.224 435.652C817.224 435.652 817.76 432.955 818.161 430.932C818.312 430.177 818.839 429.637 821.303 429.229C822.661 429.022 824.38 428.691 826.472 428.461C831.69 427.872 835.15 427.101 835.15 427.101L832.749 425.082C832.749 425.082 828.339 425.692 824.614 426.101C823.127 426.255 819.801 426.631 817.898 427.038C817.377 427.073 816.887 427.297 816.519 427.668C816.151 428.039 815.931 428.531 815.9 429.053L814.973 433.719L817.224 435.652Z" fill="#999999"/>
<path d="M810.785 429.971C810.785 429.971 811.321 427.273 811.723 425.25C811.873 424.495 812.401 423.955 814.864 423.547C816.222 423.341 817.942 423.009 820.06 422.785C825.251 422.19 828.739 421.425 828.739 421.425L826.337 419.406C826.337 419.406 821.901 420.011 818.176 420.42C816.715 420.578 813.362 420.95 811.486 421.362C810.961 421.391 810.465 421.611 810.092 421.981C809.719 422.352 809.494 422.846 809.462 423.371L808.535 428.038L810.785 429.971Z" fill="#999999"/>
<path d="M803.408 423.654C803.408 423.654 803.944 420.957 804.346 418.934C804.501 418.152 805.029 417.612 807.492 417.204C808.823 416.992 810.564 416.693 812.661 416.436C817.879 415.847 821.34 415.076 821.34 415.076L818.938 413.057C818.938 413.057 814.642 413.662 810.912 414.098C809.424 414.251 806.093 414.655 804.19 415.062C803.67 415.091 803.179 415.308 802.807 415.673C802.436 416.037 802.209 416.525 802.171 417.044L801.238 421.737L803.408 423.654Z" fill="#999999"/>
<path d="M796.575 417.418C796.575 417.418 797.111 414.721 797.513 412.698C797.663 411.943 798.191 411.402 800.654 410.995C801.991 410.756 803.732 410.457 805.829 410.2C811.047 409.611 814.507 408.84 814.507 408.84L812.1 406.848C812.1 406.848 807.691 407.458 803.966 407.867C802.478 408.02 799.152 408.397 797.249 408.804C796.726 408.838 796.233 409.06 795.861 409.43C795.489 409.799 795.263 410.29 795.225 410.813L794.298 415.48L796.575 417.418Z" fill="#999999"/>
<path d="M789.251 411.113C789.251 411.113 789.787 408.415 790.189 406.392C790.345 405.61 790.845 405.064 793.336 404.662C794.667 404.45 796.252 404.092 798.505 403.895C803.696 403.3 807.183 402.535 807.183 402.535L804.782 400.515C804.782 400.515 800.34 401.147 796.621 401.529C795.16 401.688 791.802 402.086 789.926 402.498C788.05 402.911 788.046 403.779 787.907 404.481L786.979 409.147L789.251 411.113Z" fill="#999999"/>
<path d="M782.575 405.076C782.575 405.076 783.111 402.378 783.513 400.355C783.663 399.6 784.191 399.06 786.654 398.652C788.013 398.445 789.732 398.114 791.85 397.89C797.042 397.295 800.529 396.53 800.529 396.53L798.127 394.511C798.127 394.511 793.686 395.142 789.966 395.525C788.505 395.683 785.152 396.054 783.271 396.494C781.39 396.933 781.397 397.748 781.252 398.476L780.325 403.142L782.575 405.076Z" fill="#999999"/>
<path d="M1068.1 368.884C1113.81 356.628 1131.18 340.424 1137.13 327.278C1135.62 321.303 1132.63 315.807 1128.42 311.304C1102.83 282.668 1041.62 295.797 978.246 319.516C923.269 339.912 796.8 389.34 796.8 389.34L864.472 448.797C864.472 448.797 894.581 438.32 921.862 425.992C966.127 406.047 969.5 395.277 1068.1 368.884Z" fill="#F68621"/>
<path d="M1137.13 327.278C1131.18 340.424 1113.84 356.633 1068.1 368.884C969.5 395.277 966.746 404.627 922.491 424.378C898.728 435.078 879.383 443.011 864.402 448.727L860.602 467.851C893.555 469.155 918.677 440.331 975.598 413.536C993.099 405.293 1079.99 388.321 1100.98 378.024C1118 369.685 1142.3 349.783 1137.13 327.278Z" fill="#DC5B27"/>
<path d="M967.474 355.116C969.478 356.766 970.986 358.938 971.832 361.393C974.108 357.836 972.713 354.418 968.412 350.395C958.945 341.617 956.198 339.08 929.346 349.531C902.493 359.982 866.84 377.488 866.84 377.488L870.019 380.251C880.149 375.394 907.16 362.591 928.435 354.257C955.255 343.828 958.061 346.348 967.474 355.116Z" fill="#0E3056"/>
<path d="M946.979 375.465C961.367 369.912 969.168 365.49 971.87 361.344C971.023 358.89 969.515 356.717 967.512 355.067C958.045 346.289 955.292 343.779 928.445 354.203C921.332 356.995 913.557 360.301 905.948 363.752C890.904 370.353 876.646 377.081 869.895 380.31L891.574 399.141C891.574 399.141 920.202 385.959 946.979 375.465Z" fill="#155396"/>
<path d="M929.71 379.296C933.641 377 938.286 376.254 942.738 377.202V377.202L920.217 357.671C920.217 357.671 915.547 351.696 904.097 357.272C900.948 358.803 898.175 361.009 895.974 363.734L921.518 386.108C923.713 383.261 926.51 380.935 929.71 379.296V379.296Z" fill="#FF953E"/>
<path d="M929.71 379.296C926.506 380.923 923.701 383.238 921.496 386.076L942.868 377.256C938.382 376.257 933.684 376.986 929.71 379.296V379.296Z" fill="#DC5B27"/>
<path d="M914.319 389.052L921.502 386.049L895.958 363.674C894.407 365.541 893.158 367.639 892.256 369.893L914.319 389.052Z" fill="#DC5B27"/>
<path d="M1039.34 300.503C1039.34 300.503 1028.16 305.124 1034.71 313.07C1041.5 320.699 1048.68 327.966 1056.23 334.841C1061.41 339.796 1070.84 339.454 1088.97 333.691C1107.1 327.928 1115.47 325.301 1120.49 323.018C1125.51 320.736 1134.79 318.064 1125.52 308.428C1115.97 298.485 1090.13 288.472 1039.34 300.503Z" fill="#DC5B27"/>
<path d="M924.475 379.686L904.636 361.894C904.919 360.972 905.43 360.136 906.122 359.465C906.814 358.794 907.664 358.308 908.594 358.054C909.57 357.71 910.621 357.635 911.636 357.836C912.651 358.038 913.593 358.509 914.364 359.2L933.065 376.094L924.475 379.686Z" fill="#155396"/>
<path d="M928.353 375.971C926.705 376.775 925.349 378.074 924.475 379.686L925.3 379.346L933.065 376.094C933.065 376.094 931.958 374.332 928.353 375.971Z" fill="#0E3056"/>
<path d="M1045.89 313.357C1045.5 312.793 1045.24 312.144 1045.13 311.462C1045.03 310.78 1045.09 310.083 1045.3 309.426C1045.51 308.77 1045.87 308.172 1046.36 307.679C1046.84 307.186 1047.43 306.811 1048.08 306.586C1058.65 303.517 1069.42 301.16 1080.31 299.531C1083.08 298.971 1085.95 299.126 1088.64 299.98C1091.34 300.834 1093.77 302.359 1095.71 304.412C1099.92 309.315 1100.5 313.019 1091.29 316.068L1069.12 323.298C1066.36 324.139 1063.43 324.267 1060.61 323.672C1057.79 323.077 1055.16 321.778 1052.98 319.895L1045.89 313.357Z" fill="white"/>
<path d="M1048.22 312.949C1047.79 312.584 1047.48 312.113 1047.29 311.584C1047.11 311.056 1047.07 310.489 1047.18 309.94C1047.29 309.392 1047.54 308.882 1047.91 308.463C1048.28 308.044 1048.76 307.731 1049.29 307.555C1059.39 304.619 1069.68 302.335 1080.08 300.718C1082.51 300.169 1085.04 300.247 1087.44 300.944C1089.83 301.64 1092.01 302.933 1093.77 304.701C1097.51 309.032 1097.93 311.976 1089.78 314.673C1081.62 317.37 1073.58 319.867 1068.14 321.73C1065.81 322.492 1063.33 322.62 1060.94 322.101C1058.55 321.582 1056.34 320.434 1054.54 318.777L1048.22 312.949Z" fill="#155396"/>
<path d="M1067.42 315.755C1065.17 315.309 1063.13 314.146 1061.6 312.441V312.441C1061.23 312.112 1060.93 311.71 1060.72 311.258C1060.51 310.806 1060.39 310.315 1060.38 309.817C1060.37 309.319 1060.47 308.824 1060.66 308.365C1060.86 307.906 1061.14 307.492 1061.51 307.15C1063.41 305.693 1065.76 304.942 1068.16 305.025C1070.55 305.107 1072.84 306.018 1074.64 307.601C1075.32 308.084 1075.85 308.751 1076.16 309.523C1076.48 310.296 1076.56 311.142 1076.41 311.962C1076.06 312.922 1075.47 313.771 1074.68 314.423C1073.9 315.075 1072.95 315.507 1071.95 315.673C1070.46 316.033 1068.92 316.061 1067.42 315.755V315.755ZM1069.23 306.638C1068.14 306.344 1067 306.304 1065.89 306.521C1064.78 306.739 1063.74 307.208 1062.84 307.892C1061.64 309.027 1061.99 310.191 1062.96 311.252C1064.01 312.437 1065.36 313.313 1066.88 313.786C1068.39 314.259 1070 314.311 1071.54 313.937C1072.24 313.861 1072.91 313.602 1073.49 313.185C1074.06 312.768 1074.52 312.207 1074.81 311.56C1074.85 311.058 1074.76 310.555 1074.54 310.1C1074.33 309.645 1074 309.253 1073.59 308.962C1072.35 307.823 1070.84 307.021 1069.2 306.632L1069.23 306.638Z" fill="white"/>
<path d="M1055.98 314.379C1055.51 313.754 1056.17 313.408 1056.57 313.235L1068.17 309.595C1068.46 309.464 1068.79 309.448 1069.09 309.549C1069.39 309.651 1069.64 309.863 1069.8 310.143C1070.09 310.509 1069.83 310.795 1069.36 310.925L1057.89 314.646C1057.59 314.842 1057.23 314.923 1056.88 314.873C1056.53 314.824 1056.21 314.648 1055.98 314.379V314.379Z" fill="white"/>
<path d="M980.083 336.368C969.706 328.081 963.057 326.424 958.501 326.78C956.21 327.469 953.992 328.38 951.879 329.502C954.148 328.803 965.624 327.326 978.022 338.986C982.998 343.704 993.389 354.18 991.662 362.305C990.548 367.915 984.629 373.02 974.32 377.505C971.896 378.565 947.299 390.642 938.236 395.206C921.959 403.356 907.885 410.429 899.112 413.677C884.535 419.052 874.395 410.28 862.576 400.081C861.07 398.773 859.516 397.426 857.929 396.102C849.51 388.821 844.6 381.089 845.197 375.543C845.444 374.007 846.031 372.546 846.916 371.266C847.8 369.986 848.96 368.921 850.31 368.148C850.31 368.148 846.242 369.723 843.962 370.756C843.03 372.127 842.455 373.709 842.291 375.359C841.604 381.923 846.757 390.546 856.093 398.429L860.691 402.371C868.695 409.344 876.418 416.038 885.639 417.87C890.518 418.76 895.549 418.243 900.145 416.378C909.069 413.076 923.202 405.986 939.571 397.798C948.925 393.04 973.414 381.082 975.499 380.178C986.879 375.234 993.089 369.654 994.515 362.899C996.45 353.302 985.971 341.154 980.083 336.368Z" fill="#DC5B27"/>
<path d="M911.869 442.007L860.183 460.085L862.666 462.541C862.666 462.541 836.606 472.392 823.012 470.561C829.858 474.472 840.206 480.65 847.381 484.178C854.075 487.443 862.234 489.12 868.636 486.383C880 481.519 903.841 468.311 923.572 458.716L924.151 455.803C926.37 445.056 920.901 438.867 911.869 442.007Z" fill="#155396"/>
<path d="M860.183 460.085C847.956 458.03 835.623 456.666 823.243 455.998C812.374 455.689 809.398 460.229 812.724 464.367C813.636 465.137 814.192 465.724 816.307 467.49C817.365 468.373 821.049 469.442 823.012 470.561C836.606 472.392 862.682 462.46 862.682 462.46L860.183 460.085Z" fill="#1D66A8"/>
<path d="M926.05 461.199C906.378 470.777 882.456 483.969 871.086 488.86C864.712 491.603 856.558 489.899 849.837 486.629C840.639 481.998 826.142 473.145 820.564 470.327C810.736 465.346 811.207 458.037 825.726 458.454C838.11 459.095 850.448 460.433 862.682 462.46L914.185 444.458C923.223 441.291 928.826 447.367 926.682 458.156L926.05 461.199Z" fill="#0E3056"/>
<path d="M796.8 389.34L795.707 394.843L798.181 394.521L859.923 449.407L858.588 456.123L862.398 459.235L864.483 448.743L796.8 389.34Z" fill="#DC5B27"/>
</g>
<g clip-path="url(#clip1)">
<path d="M30.5138 239.149L62.9777 257.912L65.0426 222.854L71.9827 104.714L56.6685 113.55L24.9502 102.591L30.5138 239.149Z" fill="#4149B7"/>
<path d="M203.903 140.517V185.215C203.945 185.646 204.1 186.058 204.351 186.411C204.603 186.763 204.943 187.043 205.337 187.223C206.394 187.762 207.564 188.043 208.75 188.043C209.936 188.043 211.106 187.762 212.163 187.223C212.56 187.048 212.904 186.77 213.156 186.416C213.409 186.063 213.561 185.647 213.597 185.215V140.517H203.903Z" fill="#5F6196"/>
<path d="M260.572 179.247V223.772C260.572 224.518 261.031 225.207 261.948 225.781C263.001 226.333 264.172 226.622 265.361 226.622C266.55 226.622 267.721 226.333 268.774 225.781C269.171 225.621 269.515 225.354 269.769 225.01C270.022 224.665 270.174 224.256 270.208 223.83V179.075L260.572 179.247Z" fill="#5F6196"/>
<path d="M195.816 114.755L223.118 103.739C223.118 103.739 307.375 141.722 331.579 161.632C335.403 164.413 338.09 168.485 339.145 173.094C340.199 177.704 339.549 182.539 337.315 186.706C331.006 198.182 296.764 211.436 296.764 211.436L195.816 114.755Z" fill="#151457"/>
<path d="M191.973 118.829C192.833 117.739 195.816 114.755 195.816 114.755C195.816 114.755 271.24 162.665 295.445 182.575C300.435 186.649 309.726 197.838 301.18 207.649C286.784 223.772 272.846 189.346 272.846 189.346L198.798 145.452C189.277 139.37 185.148 127.78 191.973 118.829Z" fill="#4149B7"/>
<path d="M197.479 113.607L213.826 104.083C216.687 102.438 219.918 101.543 223.217 101.483C226.516 101.423 229.777 102.199 232.696 103.739C255.639 115.73 312.135 146.198 331.579 161.632C353.088 178.846 307.088 192.1 296.592 183.551C268.913 162.836 239.755 144.177 209.352 127.722C204.706 125.255 192.604 116.017 197.479 113.607Z" fill="#4149B7"/>
<path d="M173.311 530.758C247.753 530.013 307.751 494.55 307.321 451.548C306.892 408.547 246.196 374.291 171.755 375.036C97.3132 375.78 37.3149 411.244 37.7448 454.245C38.1746 497.247 98.8699 531.503 173.311 530.758Z" fill="#30338D"/>
<path d="M170.846 527C240.946 526.621 297.597 493.483 297.378 452.986C297.159 412.488 240.153 379.966 170.053 380.345C99.9518 380.725 43.3015 413.862 43.5206 454.36C43.7396 494.857 100.745 527.379 170.846 527Z" fill="#5F6196"/>
<path d="M170.736 506.631C223.002 506.348 265.24 481.638 265.077 451.439C264.914 421.24 222.411 396.988 170.144 397.271C117.877 397.554 75.6393 422.265 75.8026 452.463C75.9659 482.662 118.469 506.914 170.736 506.631Z" fill="#30338D"/>
<path d="M170.782 504.566C223.049 504.283 265.287 479.572 265.123 449.374C264.96 419.175 222.457 394.923 170.19 395.206C117.924 395.489 75.6855 420.199 75.8488 450.398C76.0122 480.597 118.515 504.849 170.782 504.566Z" fill="#2A2C73"/>
<path d="M142.704 321.314V434.348C142.881 436.807 143.722 439.173 145.136 441.194C146.549 443.214 148.484 444.814 150.734 445.823C156.786 448.893 163.477 450.493 170.263 450.493C177.05 450.493 183.741 448.893 189.793 445.823C192.043 444.8 193.981 443.199 195.412 441.184C196.843 439.168 197.714 436.809 197.938 434.348V321.314H142.704Z" fill="#5F6196"/>
<path d="M142.704 434.348C142.673 435.82 142.936 437.284 143.478 438.653C144.019 440.023 144.829 441.27 145.858 442.323C147.888 444.481 150.325 446.217 153.028 447.43C158.456 449.796 164.314 451.017 170.235 451.017C176.156 451.017 182.014 449.796 187.442 447.43C190.148 446.219 192.6 444.505 194.669 442.381C196.753 440.248 197.926 437.388 197.938 434.405C197.694 437.289 196.336 439.965 194.153 441.864C192.07 443.828 189.638 445.385 186.983 446.454C176.207 450.626 164.263 450.626 153.487 446.454C150.855 445.372 148.445 443.816 146.374 441.864C145.295 440.917 144.415 439.765 143.785 438.474C143.155 437.184 142.787 435.781 142.704 434.348V434.348Z" fill="#D3909E"/>
<path d="M65.0425 222.854L174.02 159.968L158.821 54.5086L71.9827 104.714L65.0425 222.854Z" fill="#151457"/>
<path d="M296.706 307.888C300.497 312.749 303.586 318.118 305.884 323.839C308.296 329.475 309.898 335.425 310.644 341.511C311.791 353.732 311.505 366.069 311.562 378.347C311.619 390.626 311.562 403.02 312.881 415.356C313.081 418.583 313.961 421.731 315.462 424.594C317.193 427.216 319.437 429.46 322.058 431.192C327.11 434.484 332.618 437.016 338.405 438.708C332.649 436.727 327.218 433.904 322.288 430.331C319.783 428.601 317.64 426.399 315.978 423.848C314.683 421.116 313.961 418.148 313.856 415.126C312.709 402.905 312.996 390.569 312.996 378.233C312.996 365.896 312.996 353.618 311.562 341.282C309.855 328.972 304.706 317.396 296.706 307.888V307.888Z" fill="#D3909E"/>
<path d="M158.018 383.511C161.767 388.39 164.835 393.756 167.138 399.462C169.634 405.081 171.295 411.035 172.07 417.134C173.217 429.356 172.931 441.692 172.988 454.028C173.045 466.364 172.988 478.643 174.365 490.979C174.36 494.144 175.183 497.256 176.753 500.004C178.322 502.752 180.584 505.041 183.312 506.643C188.503 510.038 194.166 512.648 200.118 514.389C194.218 512.436 188.634 509.633 183.542 506.07C181.067 504.323 178.946 502.123 177.29 499.586C176.003 496.848 175.262 493.886 175.11 490.865C174.02 478.643 174.307 466.307 174.25 454.028C174.193 441.749 174.25 429.356 172.873 417.02C171.163 404.677 166.015 393.065 158.018 383.511V383.511Z" fill="#D3909E"/>
<path d="M24.9502 102.591L56.6685 113.55L71.9827 104.657L158.821 54.5086L156.469 37.9265C156.044 34.9491 154.83 32.1395 152.955 29.7889C151.079 27.4384 148.609 25.6322 145.801 24.5576C143.443 23.6047 140.897 23.2074 138.361 23.3964C135.825 23.5855 133.366 24.3558 131.175 25.6478L43.5911 76.2547C38.4794 79.1669 34.119 83.2342 30.8579 88.1318C30.0454 89.5013 29.3175 90.9192 28.6784 92.3778C26.9481 95.5837 25.6923 99.024 24.9502 102.591Z" fill="#4149B7"/>
<path d="M145.801 24.5577C148.609 25.6323 151.079 27.4385 152.955 29.7891C154.83 32.1397 156.044 34.9492 156.469 37.9267L158.821 54.5088L178.838 43.0333L146.317 24.2134L145.801 24.5577Z" fill="#4149B7"/>
<path d="M171.153 389.077L319.362 303.469V245.231L149.644 343.232V376.683C149.649 379.199 150.315 381.669 151.576 383.845C152.836 386.022 154.647 387.828 156.826 389.084C159.005 390.339 161.476 391 163.99 390.998C166.505 390.997 168.975 390.334 171.153 389.077V389.077Z" fill="#151457"/>
<path d="M127.734 379.896L33.6111 286.887V228.764L202.355 371.06L176.315 386.093C168.668 390.566 159.757 392.384 150.97 391.263C142.183 390.142 134.014 386.146 127.734 379.896Z" fill="#4149B7"/>
<path d="M67.4516 56.9759L87.3544 68.4514L92.8033 63.0579L142.704 13.7707C142.13 7.28702 117.409 -2.69667 111.788 0.573847L82.3643 17.7871C80.0336 19.1639 77.9094 20.8638 76.0551 22.8363C71.8493 27.3241 69.2999 33.1129 68.8281 39.2463L67.4516 56.9759Z" fill="#4149B7"/>
<path d="M203.043 177.01L319.362 245.232L149.644 343.232L62.9777 257.912L203.043 177.01Z" fill="#4149B7"/>
<path d="M265.39 556.103L418.532 467.684V457.758L265.39 546.234V556.103Z" fill="#2A2C73"/>
<path d="M265.39 556.103L181.19 516.799V506.873L265.39 546.234V556.103Z" fill="#5F6196"/>
<path d="M265.39 546.234L418.532 457.643L334.39 418.511L181.19 507.102L265.39 546.234Z" fill="#353890"/>
<path d="M63.0924 258.199C63.0924 258.199 134.1 321.314 142.302 336.118C146.661 344.15 162.32 354.708 163.123 369.913C163.26 372.416 164.036 374.842 165.375 376.96C166.715 379.078 168.574 380.818 170.776 382.014C172.978 383.211 175.449 383.823 177.955 383.794C180.46 383.765 182.917 383.095 185.09 381.847C229.427 355.741 313.512 306.855 319.362 303.47C326.13 299.568 333.357 275.527 326.876 253.264C326.078 250.518 325.082 247.833 323.894 245.232C312.422 221.076 203.043 177.01 203.043 177.01L117.983 191.297L63.0924 258.199Z" fill="#4149B7"/>
<path d="M147.522 357.577C149.988 377.544 160.14 396.192 177.577 386.265C226.1 358.265 314.2 306.626 319.362 303.642C326.13 299.74 333.357 275.699 326.876 253.437C326.876 253.437 288.734 306.167 255.41 325.847C222.085 345.527 169.03 364.003 142.187 336.003C145.095 342.867 146.896 350.148 147.522 357.577Z" fill="#151457"/>
<path d="M67.4516 56.9758L87.3544 68.4513L92.8033 63.0579C92.7754 62.8868 92.7754 62.7125 92.8033 62.5415C92.8033 59.6726 97.4492 32.7052 97.4492 32.7052C92.8346 35.0094 87.6761 36.0018 82.5364 35.574C73.7608 34.9429 74.5638 26.7379 76.0551 22.951C71.873 27.4087 69.3253 33.1531 68.8281 39.2462L67.4516 56.9758Z" fill="#4149B7"/>
<path d="M87.3543 68.5089L146.202 34.4266L144.941 18.9921C144.797 17.5402 144.296 16.1465 143.482 14.9355C142.669 13.7245 141.568 12.7338 140.279 12.0519C138.989 11.3701 137.551 11.0182 136.093 11.0278C134.634 11.0373 133.201 11.408 131.921 12.1068L102.497 29.32C98.6492 31.5551 95.402 34.6914 93.0342 38.4594C90.6663 42.2273 89.2487 46.5142 88.903 50.9513L87.3543 68.5089Z" fill="#151457"/>
<path d="M63.0924 258.199C63.0924 258.199 100.661 222.912 135.534 204.034C179.068 180.51 203.158 177.297 203.158 177.297L185.492 54.9677C185.042 52.2563 183.949 49.6921 182.305 47.4896C180.661 45.2872 178.514 43.5106 176.043 42.3084C173.572 41.1062 170.85 40.5134 168.103 40.5796C165.356 40.6458 162.665 41.3691 160.255 42.6889L72.671 93.2959C66.3662 96.9311 61.2171 102.275 57.8174 108.711C54.4177 115.148 52.9059 122.414 53.4565 129.673L63.0924 258.199Z" fill="#151457"/>
<path d="M29.0225 211.321L56.3816 200.305C56.3816 200.305 140.581 238.289 164.786 258.199C168.619 260.971 171.315 265.043 172.37 269.656C173.425 274.269 172.768 279.108 170.522 283.273C164.212 294.748 129.97 308.003 129.97 308.003L29.0225 211.321Z" fill="#151457"/>
<path d="M25.237 215.395C26.04 214.305 29.0225 211.321 29.0225 211.321C29.0225 211.321 104.504 259.232 128.709 279.142C133.641 283.215 142.933 294.404 134.444 304.216C120.334 320.224 106.225 285.797 106.225 285.797L32.0051 242.018C22.5412 235.936 18.4115 224.346 25.237 215.395Z" fill="#4149B7"/>
<path d="M30.6859 210.174L47.09 200.821C49.9404 199.176 53.1617 198.281 56.4521 198.221C59.7425 198.161 62.9943 198.937 65.903 200.477C88.8457 212.469 145.342 242.936 164.786 258.371C186.295 275.584 140.295 288.838 129.798 280.289C102.134 259.502 72.9752 240.785 42.5588 224.289C37.9129 221.821 25.8106 212.584 30.6859 210.174Z" fill="#4149B7"/>
</g>
</g>
<defs>
<clipPath id="clip0">
<rect x="774.26" y="231.799" width="376.966" height="236.482" transform="rotate(11.2371 774.26 231.799)" fill="white"/>
</clipPath>
<clipPath id="clip1">
<rect width="451.111" height="598.619" fill="white"/>
</clipPath>
</defs>
</svg>
