<svg xmlns="http://www.w3.org/2000/svg" xmlns:xlink="http://www.w3.org/1999/xlink" viewBox="0 0 351.59 372.64"><defs><style>.cls-1{fill:none;}.cls-2{isolation:isolate;}.cls-3{fill:#563d2c;}.cls-4{fill:#705543;}.cls-5{fill:#ba9e8c;}.cls-6{fill:#4a3928;}.cls-7{fill:#302315;}.cls-8{fill:#b5c4b3;}.cls-9{fill:#212425;}.cls-10{fill:#eaeae6;}.cls-11{fill:#332925;}.cls-12{fill:#282322;}.cls-13{fill:#d9cbc1;}.cls-13,.cls-15{mix-blend-mode:multiply;}.cls-14{fill:#6d2f0d;}.cls-15{fill:#1d1d1b;opacity:0.2;}.cls-16{fill:#5e2810;}.cls-17{fill:#56240b;}.cls-18{clip-path:url(#clip-path);}.cls-19{fill:#202020;}</style><clipPath id="clip-path" transform="translate(-49.2 -34.94)"><rect class="cls-1" x="128.73" y="324.37" width="36.41" height="43.03"/></clipPath></defs><title>BarbettoLogo</title><g class="cls-2"><g id="Layer_1" data-name="Layer 1"><path class="cls-3" d="M166.93,117.66s-12.11-14.29-23.37-14.29-24.69-.87-26.85,3.9,15.56,34.17,42.87,35.93S166.93,117.66,166.93,117.66Z" transform="translate(-49.2 -34.94)"/><path class="cls-4" d="M159.57,125c1.17-5.77-19.91-13.86-27.27-13.43s1.29,3.45,5.63,6.71.59,7.58,6.57,9.75S158.26,131.53,159.57,125Z" transform="translate(-49.2 -34.94)"/><path class="cls-3" d="M283.07,117.66s12.1-14.29,23.37-14.29,24.69-.87,26.85,3.9-15.57,34.17-42.87,35.93S283.07,117.66,283.07,117.66Z" transform="translate(-49.2 -34.94)"/><path class="cls-4" d="M290.42,125c-1.17-5.77,19.92-13.86,27.28-13.43s-1.3,3.45-5.63,6.71-.59,7.58-6.58,9.75S291.74,131.53,290.42,125Z" transform="translate(-49.2 -34.94)"/><path class="cls-4" d="M288.68,134.23c-4.55-14-3.47-17.43-3.47-17.43S243.51,76.08,225,77.38c-18.52-1.3-60.21,39.42-60.21,39.42s1.08,3.46-3.47,17.43,1,15.27,3.1,20.47.48,17.55.15,23.07,2.24,20,2.24,28.49,6.82,17.54,13.32,23.32S200,247.36,200,247.36l25-3.86,25,3.86s13.35-12,19.85-17.78,13.32-14.87,13.32-23.32,2.56-23,2.24-28.49-2-17.87.14-23.07S293.23,148.2,288.68,134.23Z" transform="translate(-49.2 -34.94)"/><path class="cls-5" d="M247.35,193.69c-6.43-5.85-14.56-28.59-22.35-28.59s-15.92,22.74-22.36,28.59-8.18,16.24-6.56,21.77,0,11,0,14.94,7.39,13.1,7.39,13.1c11.29,10.18,21.53,3.26,21.53,3.26s10.24,6.92,21.53-3.26c0,0,7.38-9.21,7.38-13.1s-1.62-9.42,0-14.94S253.79,199.54,247.35,193.69Z" transform="translate(-49.2 -34.94)"/><path class="cls-5" d="M251.19,236.89c-5.08-4.86-26.19,1-26.19,1s-21.12-5.84-26.19-1,7,20.15,13.13,25.35,9.16,0,13.06,0,6.95,5.2,13.06,0S256.26,241.76,251.19,236.89Z" transform="translate(-49.2 -34.94)"/><path class="cls-6" d="M246.53,243.5c-1.87-.22-9.58,5.53-12.77,4.81-4.17-.95-8.76-1.55-8.76-1.55s-4.6.6-8.76,1.55c-3.19.72-10.9-5-12.77-4.81s5.59,5,8.47,6.5a12.79,12.79,0,0,0,8.46.86,20.18,20.18,0,0,1,9.19,0,12.81,12.81,0,0,0,8.47-.86C240.94,248.48,248.39,243.72,246.53,243.5Z" transform="translate(-49.2 -34.94)"/><path class="cls-6" d="M241.24,205.31c-7.14-3.25-10.39,8.45-16.24,8.45s-9.1-11.7-16.24-8.45-9.1,6.5,0,12.35,10.93,5.2,11.63,11.05,0,8.66,4.61,8.66,3.9-2.82,4.6-8.66,2.54-5.2,11.64-11.05S248.39,208.56,241.24,205.31Z" transform="translate(-49.2 -34.94)"/><path class="cls-7" d="M215,213.76c-5.84-1.52-10.34-5.19-11.56-.65h0a18.5,18.5,0,0,0,5.29,4.55c7.65,4.92,10.16,5.25,11.18,8.72l.45.16S220.88,215.28,215,213.76Z" transform="translate(-49.2 -34.94)"/><path class="cls-7" d="M235,213.76c5.85-1.52,10.35-5.19,11.57-.65h0a18.5,18.5,0,0,1-5.29,4.55c-7.66,4.92-10.16,5.25-11.18,8.72l-.46.16S229.11,215.28,235,213.76Z" transform="translate(-49.2 -34.94)"/><path class="cls-7" d="M170,144.22c4-.94,10,8.75,11.28,13.6s-.24,1.38-1.16,0-1.55-2.31-3-2.19-7.36.72-9.47-2.15C162,145.84,167.71,144.76,170,144.22Z" transform="translate(-49.2 -34.94)"/><path class="cls-8" d="M165.55,147.62c.28,1.68,1.39,7.55,6.85,6.93s3.47-5.24,2.08-6.93-1.78-2.53-3.26-2.93C169.1,144.13,165.33,146.32,165.55,147.62Z" transform="translate(-49.2 -34.94)"/><path class="cls-9" d="M167.56,149c-.76.76.46,1.84,2,1.69s3.85-.45,2.85-1.69A3.2,3.2,0,0,0,167.56,149Z" transform="translate(-49.2 -34.94)"/><path class="cls-10" d="M170,148.29c0,.36-.59.65-1.33.65s-1.33-.29-1.33-.65.59-.66,1.33-.66S170,147.92,170,148.29Z" transform="translate(-49.2 -34.94)"/><path class="cls-10" d="M171.19,150.39a.8.8,0,0,1-.56.94.68.68,0,1,1-.49-1.22A.79.79,0,0,1,171.19,150.39Z" transform="translate(-49.2 -34.94)"/><path class="cls-3" d="M187.74,217.92c-7.84-3.65-11.7-15.24-11.73-24s-10.47-35-10.47-35l-.2.23c.53,6-.52,14.34-.77,18.62-.32,5.52,2.24,20,2.24,28.49s6.82,17.54,13.32,23.32S200,247.36,200,247.36l6.16-1h0C205.8,243.25,195.59,221.57,187.74,217.92Z" transform="translate(-49.2 -34.94)"/><path class="cls-3" d="M257.71,96.87c-.6-2.39-2.43-4.82-4.92-7.17C242.55,82.53,232.08,76.88,225,77.38c-7.08-.5-17.56,5.15-27.79,12.32-2.49,2.35-4.32,4.78-4.92,7.17-2.82,11.27,13.65,21.23,19.65,28.59s4.83,28.59,13.06,29.13c8.23-.54,7.06-21.76,13.06-29.13S260.53,108.14,257.71,96.87Z" transform="translate(-49.2 -34.94)"/><path class="cls-11" d="M169,115.23c4.34,5.06,47.72-17.54,44.91-28.77S163.4,27.51,115,35.94,32.88,109.62,57.44,158s65.84,62.57,74.19,66.67c11.42,5.61,27.56-2.81,10-13.34-15.09-9.05-42.1-38.59-47.71-58.94s-2.81-56.84,21.75-65.27S160.59,105.41,169,115.23Z" transform="translate(-49.2 -34.94)"/><path class="cls-12" d="M119,65c-38,7.27-58.63,56.53-39.29,94.66s49.64,51.55,56.21,54.78a13.65,13.65,0,0,0,10.33.71,26.67,26.67,0,0,0-4.79-3.57c-15.09-9.05-42.11-38.59-47.72-58.94S91,95.75,115.52,87.32s44.9,18.25,53.33,28.08c2.56,3,18.77-3.69,31-12C193.62,92,159.72,57.15,119,65Z" transform="translate(-49.2 -34.94)"/><path class="cls-11" d="M281,115.23c-4.33,5.06-47.71-17.54-44.9-28.77S286.6,27.51,335,35.94s82.12,73.68,57.55,122.1-65.85,62.57-74.19,66.67c-11.42,5.61-27.56-2.81-10-13.34,15.09-9.05,42.11-38.59,47.72-58.94s2.81-56.84-21.75-65.27S289.41,105.41,281,115.23Z" transform="translate(-49.2 -34.94)"/><path class="cls-12" d="M330.64,65c38,7.27,58.64,56.53,39.3,94.66s-49.64,51.55-56.2,54.78a13.68,13.68,0,0,1-10.34.71,26.67,26.67,0,0,1,4.79-3.57c15.09-9.05,42.1-38.59,47.72-58.94s2.8-56.84-21.76-65.27-44.91,18.25-53.33,28.08c-2.56,3-18.77-3.69-31-12C256.05,92,289.94,57.15,330.64,65Z" transform="translate(-49.2 -34.94)"/><path class="cls-7" d="M280,144.22c-4-.94-10,8.75-11.28,13.6s.24,1.38,1.16,0,1.55-2.31,3-2.19,7.36.72,9.47-2.15C288,145.84,282.29,144.76,280,144.22Z" transform="translate(-49.2 -34.94)"/><path class="cls-8" d="M284.45,147.62c-.28,1.68-1.39,7.55-6.85,6.93s-3.47-5.24-2.08-6.93,1.78-2.53,3.26-2.93C280.9,144.13,284.67,146.32,284.45,147.62Z" transform="translate(-49.2 -34.94)"/><path class="cls-9" d="M282.44,149c.77.76-.46,1.84-2,1.69s-3.85-.45-2.84-1.69A3.2,3.2,0,0,1,282.44,149Z" transform="translate(-49.2 -34.94)"/><path class="cls-10" d="M280,148.29c0,.36.59.65,1.32.65s1.34-.29,1.34-.65-.6-.66-1.34-.66S280,147.92,280,148.29Z" transform="translate(-49.2 -34.94)"/><path class="cls-10" d="M278.81,150.39a.8.8,0,0,0,.56.94.68.68,0,1,0,.49-1.22A.79.79,0,0,0,278.81,150.39Z" transform="translate(-49.2 -34.94)"/><path class="cls-3" d="M262.25,217.92c7.85-3.65,11.71-15.24,11.74-24s10.47-35,10.47-35l.2.23c-.53,6,.51,14.34.77,18.62.32,5.52-2.24,20-2.24,28.49s-6.83,17.54-13.32,23.32S250,247.36,250,247.36l-6.16-1h0C244.2,243.25,254.41,221.57,262.25,217.92Z" transform="translate(-49.2 -34.94)"/><path class="cls-13" d="M238.06,262.24a60.22,60.22,0,0,0,12-14.88s13.35-12,19.85-17.78,13.32-14.87,13.32-23.32,2.56-23,2.24-28.49c0-.47-.07-1-.11-1.55,0-.24,0-.5-.06-.76,0-.07,0-.15,0-.22-.38-4.55-1-11.13-.58-16.09h0a15.7,15.7,0,0,1,.91-4.45c1.54-3.77,4.86-5.51,4.83-11.5h0c27.3-1.76,45-31.17,42.87-35.93s-15.59-3.9-26.85-3.9c-9,0-18.45,9-21.95,12.73-.52-.5-1.31-1.25-2.36-2.22,9-10.69,28.67-34.78,52.19-26.72,24.56,8.43,27.37,44.92,21.75,65.27s-32.63,49.89-47.72,58.94c-17.54,10.53-1.4,18.95,10,13.34,8.34-4.1,49.63-18.25,74.19-66.67S383.44,44.36,335,35.94c-42.8-7.45-85,29-96.19,45.27l-1.23-.6-.61-.27c-.5-.23-1-.45-1.5-.66l-.71-.28c-.49-.2-1-.38-1.45-.54l-.57-.21c-.66-.22-1.3-.41-1.93-.58l-.29-.07c-.53-.13-1.05-.25-1.56-.34l-.56-.09c-.43-.07-.85-.12-1.27-.15l-.51,0a12.66,12.66,0,0,0-1.63,0V262.24C228.9,262.24,232,267.44,238.06,262.24Z" transform="translate(-49.2 -34.94)"/><path class="cls-14" d="M272.24,262.64c-.29-2.7-1.8-2.09-1.8-2.09s1.06,4.27.68,15.74c-.37,11.1-4.67,16.87-4.94,17.22,0-.22.32-1.95-.39-2.23-2.32,7.11-16,21.36-23.23,26.08a4.45,4.45,0,0,0,.6-4.5S231,325.3,225.55,326.65c-2.55-6.82-18.14-13.49-18.14-13.49a7.32,7.32,0,0,0,0,3.82c-10.72-5.69-22.26-25.33-22.26-25.33a6.68,6.68,0,0,0-.9,3.45c-6.6-10.2-3.9-33.73-3.9-33.73a4.44,4.44,0,0,0-2.25,1.42c1.13-11.91,4.11-31.6,4.11-31.6,6.69,6.23,9.25,6,16.87,5.7-5.34,4.66,6.89,18.21,9.63,20.46a7,7,0,0,0,9,0c4.28-3.67.83-6.12.83-6.12a7.9,7.9,0,0,0,1.42-.16,8.37,8.37,0,0,0,1.08-.29,14.35,14.35,0,0,1,1.63-.3,17.28,17.28,0,0,1,2.21-.13c.76,0,1.33,0,1.48,0a20.53,20.53,0,0,1,2.12.19,10.17,10.17,0,0,1,1.14.23c.47.12.66.2,1,.28a6.11,6.11,0,0,0,1.08.13c-.27.43-1.87,3-.87,5.17,1.29,2.79,5.79,2.73,6.05,2.73,5.81.08,19.49-15,14.56-22.2a23.07,23.07,0,0,0,17.76-6.49C274.09,235,272.81,257.09,272.24,262.64Z" transform="translate(-49.2 -34.94)"/><path class="cls-15" d="M271.17,276.29c-.37,11.1-4.67,16.87-4.94,17.22,0-.22.32-1.95-.39-2.23-2.32,7.11-16,21.36-23.23,26.08a4.45,4.45,0,0,0,.6-4.5s-12.14,12.44-17.61,13.79c-2.55-6.82-18.14-13.49-18.14-13.49a7.32,7.32,0,0,0,0,3.82c-10.72-5.69-22.26-25.33-22.26-25.33a6.68,6.68,0,0,0-.9,3.45c-5.09-7.87-4.65-23.68-4.18-30.49.47,5.78,1.64,11.71,4.18,15.65a6.68,6.68,0,0,1,.9-3.45s11.54,19.64,22.26,25.33a7.32,7.32,0,0,1,0-3.82s15.59,6.67,18.14,13.49c5.47-1.35,17.61-13.79,17.61-13.79a4.45,4.45,0,0,1-.6,4.5c7.2-4.72,20.91-19,23.23-26.08.71.28.43,2,.39,2.23.24-.33,3.84-5.15,4.76-14.41A104.05,104.05,0,0,1,271.17,276.29Z" transform="translate(-49.2 -34.94)"/><path class="cls-16" d="M266.17,256.5s2.85,3.15.9,9.14c-.6-1.38-.67-2.32-1.5-2.77,0,2.32-2.17,14.24-9.67,16.71a10,10,0,0,0,2.1-4.72,11.63,11.63,0,0,0-6.82,9.52c-.52-10.34,3.67-14.62,4.65-16.19a17.14,17.14,0,0,0,1.57-4.27s1.5-1.05,1.13,1.72c2.62-.3,4.19-4.87,4.19-7.42a5.23,5.23,0,0,1,1,3.45S266.25,258,266.17,256.5Z" transform="translate(-49.2 -34.94)"/><path class="cls-16" d="M185.78,256.5s-2.84,3.15-.9,9.14c.6-1.38.68-2.32,1.5-2.77,0,2.32,2.18,14.24,9.67,16.71a10,10,0,0,1-2.1-4.72,11.61,11.61,0,0,1,6.82,9.52c.53-10.34-3.67-14.62-4.64-16.19a16.9,16.9,0,0,1-1.58-4.27s-1.5-1.05-1.12,1.72c-2.62-.3-4.2-4.87-4.2-7.42a5.19,5.19,0,0,0-1,3.45S185.71,258,185.78,256.5Z" transform="translate(-49.2 -34.94)"/><path class="cls-16" d="M216.4,265.11a6,6,0,0,0,5.55-3.89s-3.6,7.6-2.78,13.32a8.05,8.05,0,0,1,2.78-4.63s3.29,9.45-1.35,13.49c8.09-8.24,5.58-12.89,5.58-12.89s3,1.5,1.61,6.6c3.75-4.65.35-12.44.35-12.44s2.05,4.43,5.35,4.31c-1.5-2.67-6.45-9-4.05-16.41-1.63-.46-1.89-.84-3.92-.84a16.08,16.08,0,0,0-5.63.84S223.2,260.09,216.4,265.11Z" transform="translate(-49.2 -34.94)"/><path class="cls-17" d="M280.64,236.28c-.19.27-4.39,6.4-13.62,10.34a43.15,43.15,0,0,1-18.88,3.25l-1.89-.11C232.19,248.52,225,240,225,240s-7.2,8.55-21.25,9.79l-2,.11a43.39,43.39,0,0,1-18.55-3.15c-9.39-3.94-13.66-10.17-13.85-10.44.25.12,5.64,2.86,15.73.89-4.92.54-6.65-2.94-6.74-3.14.4.05,11,1.61,15.39-1.81a6.77,6.77,0,0,1-4.5-.79,108,108,0,0,0,20.47-9c9.44-5.62,15.29,4.73,15.29,4.73s5.84-10.35,15.29-4.73a107.71,107.71,0,0,0,20.46,9,6.75,6.75,0,0,1-4.5.79c4.42,3.42,15,1.86,15.4,1.81-.09.2-1.83,3.68-6.74,3.14C275,239.14,280.39,236.4,280.64,236.28Z" transform="translate(-49.2 -34.94)"/><path class="cls-15" d="M280.64,236.28c-.19.27-4.39,6.4-13.62,10.34a43.15,43.15,0,0,1-18.88,3.25l-1.89-.11C232.19,248.52,225,240,225,240s-7.2,8.55-21.25,9.79l-2,.11a43.39,43.39,0,0,1-18.55-3.15c-9.39-3.94-13.66-10.17-13.85-10.44.21.1,4.06,2.06,11.29,1.49.81.41,1.66.81,2.56,1.19a43.09,43.09,0,0,0,18.55,3.14c.65,0,1.32-.06,2-.1,14.05-1.25,21.25-9.79,21.25-9.79s7.19,8.54,21.25,9.79c.64,0,1.27.08,1.89.1A43.17,43.17,0,0,0,267,238.87c.82-.36,1.6-.71,2.33-1.09C276.59,238.34,280.43,236.38,280.64,236.28Z" transform="translate(-49.2 -34.94)"/><path class="cls-14" d="M225.94,227.94s4.16-5.84,8.2-4.16,10.68,4.84,14.73,4.84h-7.64s6.07,2,9,1.35C247,231.31,236.18,236,225.94,227.94Z" transform="translate(-49.2 -34.94)"/><path class="cls-14" d="M223.8,227.94s-4.16-5.84-8.21-4.16-10.68,4.84-14.73,4.84h7.65s-6.07,2-9,1.35C202.78,231.31,213.55,236,223.8,227.94Z" transform="translate(-49.2 -34.94)"/><g class="cls-18"><path class="cls-19" d="M161.24,362H132.63a1.29,1.29,0,0,0-.92.39,1.42,1.42,0,0,0-.38,1v2.69a1.41,1.41,0,0,0,.38.95,1.29,1.29,0,0,0,.92.39h28.61a1.29,1.29,0,0,0,.92-.39,1.41,1.41,0,0,0,.38-.95v-2.69a1.42,1.42,0,0,0-.38-1A1.29,1.29,0,0,0,161.24,362Zm1.3-24.2h-13v-4h3.25a.65.65,0,0,0,.46-.2.67.67,0,0,0,.19-.47v-4a.68.68,0,0,0-.19-.47.65.65,0,0,0-.46-.2h-3.25V325a.71.71,0,0,0-.19-.48.68.68,0,0,0-.46-.19H145a.68.68,0,0,0-.46.19.71.71,0,0,0-.19.48v3.36h-3.25a.65.65,0,0,0-.46.2.68.68,0,0,0-.19.47v4a.67.67,0,0,0,.19.47.65.65,0,0,0,.46.2h3.25v4h-13a2.39,2.39,0,0,0-1.17.29,2.53,2.53,0,0,0-.92.8,2.58,2.58,0,0,0-.47,1.15,2.78,2.78,0,0,0,.08,1.25l5.94,18h24.29l5.94-18a2.78,2.78,0,0,0,.08-1.25,2.58,2.58,0,0,0-.47-1.15,2.53,2.53,0,0,0-.92-.8A2.39,2.39,0,0,0,162.54,337.82Z" transform="translate(-49.2 -34.94)"/></g><path class="cls-19" d="M111,374a13.26,13.26,0,0,1,12.51,7.88,19.8,19.8,0,0,1,1.85,8.8,20.12,20.12,0,0,1-1.85,8.81,13.75,13.75,0,0,1-5.1,6,14.13,14.13,0,0,1-13.84.59,10.45,10.45,0,0,1-4.23-4.5v5.56H93.64V360.45h6.69v19.66a10.45,10.45,0,0,1,4.23-4.5A12.75,12.75,0,0,1,111,374Zm-1.59,28.27a8,8,0,0,0,6.68-3.05c1.64-2,2.45-4.87,2.45-8.54s-.79-6.4-2.38-8.34a9.15,9.15,0,0,0-13.51,0c-1.54,2-2.31,4.81-2.31,8.48s.77,6.48,2.31,8.47A8.15,8.15,0,0,0,109.4,402.29ZM146.26,374q6.5,0,9.6,3.24t3.18,9.87v20h-6.42v-5.36a9.41,9.41,0,0,1-3.78,4.37,11.06,11.06,0,0,1-5.76,1.46,13.34,13.34,0,0,1-5.82-1.26,10.43,10.43,0,0,1-4.17-3.64,9.46,9.46,0,0,1-1.46-5.17,7.86,7.86,0,0,1,1.79-5.49q1.85-2.05,6-2.92a61.47,61.47,0,0,1,11.59-.86h1.52v-1.92c0-2.47-.53-4.25-1.59-5.36s-2.69-1.65-5-1.65a20.84,20.84,0,0,0-11,3.37l-2-4.7a21.2,21.2,0,0,1,6.23-2.84A24.37,24.37,0,0,1,146.26,374Zm-2,28.6a7.84,7.84,0,0,0,6-2.45,9.09,9.09,0,0,0,2.32-6.42V392h-1.19a51.69,51.69,0,0,0-8,.46,7.63,7.63,0,0,0-4,1.59,4,4,0,0,0-1.19,3.11,5.21,5.21,0,0,0,1.65,3.91A6.39,6.39,0,0,0,144.27,402.62Zm43.58-23-4,.4c-3.18.3-5.47,1.27-6.89,2.91a9.35,9.35,0,0,0-2,6.22v17.94h-6.69V374.81h6.49v5.63q2.58-5.69,10.53-6.29l2.18-.13ZM209.77,374a13.29,13.29,0,0,1,12.52,7.88,19.8,19.8,0,0,1,1.85,8.8,20.12,20.12,0,0,1-1.85,8.81,13.82,13.82,0,0,1-5.1,6,13.29,13.29,0,0,1-7.42,2.12,13.13,13.13,0,0,1-6.42-1.53,10.45,10.45,0,0,1-4.23-4.5v5.56h-6.69V360.45h6.69v19.66a10.45,10.45,0,0,1,4.23-4.5A12.74,12.74,0,0,1,209.77,374Zm-1.58,28.27a8,8,0,0,0,6.68-3.05c1.63-2,2.45-4.87,2.45-8.54s-.79-6.4-2.38-8.34a9.15,9.15,0,0,0-13.51,0c-1.54,2-2.31,4.81-2.31,8.48s.77,6.48,2.31,8.47A8.15,8.15,0,0,0,208.19,402.29Zm51-10.2H236.38q.72,10.28,10.19,10.27a15.58,15.58,0,0,0,10.06-3.65l2.06,4.71a17,17,0,0,1-5.56,3,20.89,20.89,0,0,1-6.76,1.13q-7.74,0-12.24-4.44t-4.44-12.25a19.41,19.41,0,0,1,1.92-8.8,14.66,14.66,0,0,1,5.49-6,15.59,15.59,0,0,1,8.08-2.12q6.56,0,10.26,4.24T259.22,390Zm-13.91-13.17a8.07,8.07,0,0,0-6.15,2.45,11.45,11.45,0,0,0-2.72,6.88h17q-.21-4.5-2.32-6.88A7.19,7.19,0,0,0,245.31,378.92Zm36.24,23.5a20.81,20.81,0,0,0,3-.2l-.33,5.1a21.31,21.31,0,0,1-3.44.27q-6.28,0-9.4-3t-3.05-8.94V380H262v-5.17h6.29v-9.73H275v9.73h8.87V380H275v15.36Q275,402.42,281.55,402.42Zm23.21,0a20.81,20.81,0,0,0,3-.2l-.33,5.1a21.31,21.31,0,0,1-3.44.27q-6.29,0-9.4-3t-3.05-8.94V380h-6.29v-5.17h6.29v-9.73h6.69v9.73h8.87V380h-8.87v15.36Q298.21,402.42,304.76,402.42Zm22.09,5.17a16.82,16.82,0,0,1-8.41-2.06,14.13,14.13,0,0,1-5.56-5.82,19.59,19.59,0,0,1-1.92-8.87,19.37,19.37,0,0,1,1.92-8.88,14.07,14.07,0,0,1,5.56-5.89,16.82,16.82,0,0,1,8.41-2.05,16.47,16.47,0,0,1,8.34,2.05,13.54,13.54,0,0,1,5.56,5.89,18.88,18.88,0,0,1,2,8.88,19.1,19.1,0,0,1-2,8.87,13.59,13.59,0,0,1-5.56,5.82A16.48,16.48,0,0,1,326.85,407.59Zm0-5.3a8.12,8.12,0,0,0,6.75-2.91c1.59-1.95,2.38-4.79,2.38-8.54s-.79-6.54-2.38-8.48a9.15,9.15,0,0,0-13.51,0q-2.38,2.91-2.38,8.48c0,3.75.77,6.59,2.32,8.54A8.31,8.31,0,0,0,326.85,402.29Zm29.51-3.05v7.88h-7.88v-7.88Z" transform="translate(-49.2 -34.94)"/></g></g></svg>